<?xml version="1.0" standalone="no"?>
<!DOCTYPE svg PUBLIC "-//W3C//DTD SVG 20010904//EN"
 "http://www.w3.org/TR/2001/REC-SVG-20010904/DTD/svg10.dtd">
<svg version="1.0" xmlns="http://www.w3.org/2000/svg"
 width="469.000000pt" height="469.000000pt" viewBox="0 0 469.000000 469.000000"
 preserveAspectRatio="xMidYMid meet">
<metadata>
Created by potrace 1.11, written by Peter Selinger 2001-2013
</metadata>
<g transform="translate(0.000000,469.000000) scale(0.100000,-0.100000)"
fill="#000000" stroke="none">
<path d="M1894 4546 c-8 -21 3 -36 27 -36 15 0 20 6 17 22 -4 27 -35 37 -44
14z"/>
<path d="M2044 4546 c-8 -21 3 -36 27 -36 15 0 20 6 17 22 -4 27 -35 37 -44
14z"/>
<path d="M2197 4554 c-4 -4 -7 -16 -7 -26 0 -13 7 -18 26 -18 21 0 25 4 22 22
-3 23 -27 35 -41 22z"/>
<path d="M2347 4554 c-4 -4 -7 -16 -7 -26 0 -14 6 -19 23 -16 14 2 22 10 22
23 0 20 -25 32 -38 19z"/>
<path d="M2494 4546 c-8 -21 3 -36 27 -36 15 0 20 6 17 22 -4 27 -35 37 -44
14z"/>
<path d="M2647 4554 c-4 -4 -7 -16 -7 -26 0 -14 6 -19 23 -16 14 2 22 10 22
23 0 20 -25 32 -38 19z"/>
<path d="M2797 4554 c-4 -4 -7 -16 -7 -26 0 -14 6 -19 23 -16 14 2 22 10 22
23 0 20 -25 32 -38 19z"/>
<path d="M2947 4554 c-4 -4 -7 -16 -7 -26 0 -14 6 -19 23 -16 14 2 22 10 22
23 0 20 -25 32 -38 19z"/>
<path d="M3097 4554 c-4 -4 -7 -16 -7 -26 0 -14 6 -19 23 -16 14 2 22 10 22
23 0 20 -25 32 -38 19z"/>
<path d="M3247 4553 c-15 -15 -7 -43 13 -43 15 0 20 7 20 25 0 24 -18 34 -33
18z"/>
<path d="M1820 4460 c0 -13 7 -20 20 -20 13 0 20 7 20 20 0 13 -7 20 -20 20
-13 0 -20 -7 -20 -20z"/>
<path d="M1970 4460 c0 -13 7 -20 20 -20 13 0 20 7 20 20 0 13 -7 20 -20 20
-13 0 -20 -7 -20 -20z"/>
<path d="M2120 4460 c0 -13 7 -20 20 -20 13 0 20 7 20 20 0 13 -7 20 -20 20
-13 0 -20 -7 -20 -20z"/>
<path d="M2190 4460 c0 -11 -7 -20 -15 -20 -8 0 -15 -7 -15 -15 0 -8 -9 -15
-20 -15 -13 0 -20 -7 -20 -20 0 -11 -7 -20 -15 -20 -8 0 -15 9 -15 20 0 14 -7
20 -21 20 -12 0 -23 -8 -26 -20 -3 -11 -12 -20 -19 -20 -8 0 -14 9 -14 20 0
13 -7 20 -20 20 -13 0 -20 -7 -20 -20 0 -11 -7 -20 -15 -20 -9 0 -15 9 -15 21
0 15 -5 20 -22 17 -30 -4 -37 -38 -9 -45 27 -7 27 -33 1 -33 -11 0 -20 -7 -20
-15 0 -8 -7 -15 -15 -15 -8 0 -15 7 -15 15 0 8 -9 15 -20 15 -11 0 -20 -7 -20
-15 0 -8 -7 -15 -15 -15 -8 0 -15 7 -15 15 0 8 -9 15 -20 15 -11 0 -23 -7 -26
-15 -4 -8 -12 -15 -20 -15 -8 0 -14 7 -14 15 0 8 -9 15 -20 15 -13 0 -20 -7
-20 -20 0 -13 7 -20 20 -20 11 0 20 -7 20 -15 0 -8 -9 -15 -20 -15 -13 0 -20
-7 -20 -20 0 -11 -7 -20 -15 -20 -8 0 -15 9 -15 20 0 14 -7 20 -21 20 -12 0
-23 -8 -26 -20 -3 -11 -12 -20 -19 -20 -8 0 -14 9 -14 20 0 13 -7 20 -20 20
-13 0 -20 -7 -20 -20 0 -11 -7 -20 -15 -20 -8 0 -15 9 -15 20 0 13 -7 20 -20
20 -15 0 -20 -7 -20 -25 0 -16 6 -25 15 -25 8 0 15 -7 15 -15 0 -8 -7 -15 -15
-15 -8 0 -15 -9 -15 -20 0 -11 7 -20 15 -20 8 0 15 -7 15 -15 0 -8 -7 -15 -15
-15 -8 0 -15 -9 -15 -20 0 -11 -6 -20 -14 -20 -7 0 -16 9 -19 20 -3 12 -14 20
-26 20 -14 0 -21 -6 -21 -20 0 -11 -7 -20 -15 -20 -8 0 -15 9 -15 20 0 13 -7
20 -20 20 -25 0 -27 -35 -2 -50 16 -10 16 -10 0 -20 -10 -6 -18 -18 -18 -25 0
-23 -37 -18 -43 6 -7 26 -31 20 -35 -9 -3 -17 2 -22 17 -22 12 0 21 -6 21 -15
0 -8 -9 -15 -20 -15 -13 0 -20 -7 -20 -20 0 -11 -7 -20 -15 -20 -9 0 -15 9
-15 21 0 15 -5 20 -22 17 -29 -4 -35 -28 -9 -35 24 -6 29 -43 6 -43 -9 0 -18
-7 -21 -15 -4 -8 -10 -15 -15 -15 -5 0 -9 7 -9 15 0 9 -9 15 -25 15 -18 0 -25
-5 -25 -20 0 -13 7 -20 20 -20 11 0 20 -7 20 -15 0 -8 -9 -15 -20 -15 -13 0
-20 -7 -20 -20 0 -11 -7 -20 -15 -20 -8 0 -15 9 -15 20 0 14 -7 20 -21 20 -16
0 -20 -5 -17 -22 2 -13 9 -22 16 -21 6 2 12 -6 12 -17 0 -11 -7 -20 -15 -20
-8 0 -15 -9 -15 -20 0 -11 7 -20 15 -20 8 0 15 -7 15 -15 0 -8 -7 -15 -15 -15
-8 0 -15 -9 -15 -20 0 -11 7 -20 15 -20 8 0 15 -7 15 -15 0 -8 -7 -15 -15 -15
-8 0 -15 7 -15 15 0 8 -7 15 -15 15 -8 0 -15 9 -15 20 0 15 -7 20 -25 20 -18
0 -25 -5 -25 -20 0 -13 7 -20 20 -20 26 0 26 -26 0 -33 -27 -7 -27 -47 0 -47
11 0 20 -7 20 -15 0 -8 -9 -15 -20 -15 -13 0 -20 -7 -20 -20 0 -11 -7 -20 -15
-20 -8 0 -15 9 -15 20 0 13 -7 20 -20 20 -13 0 -20 -7 -20 -20 0 -11 7 -20 15
-20 8 0 15 -7 15 -15 0 -8 -7 -15 -15 -15 -9 0 -15 -9 -15 -25 0 -16 6 -25 15
-25 8 0 15 -7 15 -15 0 -8 -7 -15 -15 -15 -8 0 -15 -9 -15 -20 0 -11 7 -20 15
-20 8 0 15 -7 15 -15 0 -8 -7 -15 -15 -15 -8 0 -15 -9 -15 -20 0 -11 -6 -20
-14 -20 -7 0 -16 9 -19 20 -3 12 -14 20 -26 20 -28 0 -29 -40 -1 -47 11 -3 20
-12 20 -19 0 -8 9 -14 20 -14 11 0 20 7 20 15 0 8 7 15 15 15 8 0 15 -7 15
-15 0 -8 -7 -15 -15 -15 -8 0 -15 -7 -15 -15 0 -8 -6 -15 -14 -15 -8 0 -16 7
-20 15 -3 8 -15 15 -26 15 -11 0 -20 -7 -20 -15 0 -8 -7 -15 -15 -15 -8 0 -15
7 -15 15 0 8 -9 15 -20 15 -13 0 -20 -7 -20 -20 0 -13 7 -20 20 -20 13 0 18
-5 14 -15 -4 -8 -13 -15 -21 -15 -9 0 -13 -8 -11 -22 4 -29 28 -35 35 -9 7 27
29 27 36 1 3 -11 12 -20 21 -20 9 0 16 -7 16 -15 0 -9 -6 -12 -16 -8 -10 4
-17 -1 -21 -16 -7 -27 -29 -27 -36 0 -7 26 -31 20 -35 -9 -2 -15 2 -22 12 -22
9 0 16 -7 16 -15 0 -8 -7 -15 -15 -15 -8 0 -15 -9 -15 -20 0 -13 7 -20 20 -20
11 0 20 7 20 15 0 8 7 15 15 15 23 0 18 -27 -6 -33 -15 -4 -20 -11 -15 -22 4
-11 1 -15 -12 -13 -11 2 -18 -5 -20 -19 -2 -16 2 -23 12 -23 9 0 16 -7 16 -15
0 -8 -7 -15 -15 -15 -15 0 -21 -31 -9 -43 10 -9 34 4 34 19 0 8 7 14 15 14 23
0 18 -27 -6 -33 -15 -4 -20 -11 -16 -21 5 -11 0 -16 -13 -16 -11 0 -20 -7 -20
-15 0 -8 -7 -15 -15 -15 -8 0 -15 7 -15 15 0 9 -9 15 -25 15 -18 0 -25 -5 -25
-20 0 -13 7 -20 20 -20 11 0 20 -7 20 -15 0 -8 -9 -15 -20 -15 -13 0 -20 -7
-20 -20 0 -13 7 -20 20 -20 26 0 26 -26 0 -33 -27 -7 -27 -47 0 -47 11 0 20
-7 20 -15 0 -8 -9 -15 -20 -15 -13 0 -20 -7 -20 -20 0 -13 7 -20 20 -20 11 0
20 -6 20 -14 0 -7 -9 -16 -20 -19 -12 -3 -20 -14 -20 -26 0 -14 6 -21 20 -21
11 0 20 -7 20 -15 0 -8 -9 -15 -20 -15 -13 0 -20 -7 -20 -20 0 -13 7 -20 20
-20 11 0 20 -7 20 -15 0 -8 -9 -15 -20 -15 -27 0 -27 -40 0 -47 26 -7 26 -33
0 -33 -13 0 -20 -7 -20 -20 0 -13 7 -20 20 -20 11 0 20 -7 20 -15 0 -8 -9 -15
-20 -15 -14 0 -20 -7 -20 -21 0 -12 8 -23 20 -26 26 -7 26 -19 0 -26 -27 -7
-27 -47 0 -47 11 0 20 -7 20 -15 0 -8 -9 -15 -20 -15 -13 0 -20 -7 -20 -20 0
-15 7 -20 25 -20 16 0 25 6 25 15 0 8 7 15 15 15 8 0 15 -7 15 -15 0 -8 9 -15
20 -15 13 0 18 -5 13 -16 -4 -10 1 -17 16 -21 11 -3 21 -12 21 -19 0 -22 -27
-16 -33 6 -3 11 -10 20 -17 20 -7 0 -14 -9 -17 -20 -6 -23 -33 -28 -33 -6 0
16 -19 25 -37 19 -22 -8 -15 -43 7 -43 11 0 20 -7 20 -15 0 -8 -9 -15 -20 -15
-13 0 -20 -7 -20 -20 0 -15 7 -20 25 -20 16 0 25 6 25 15 0 8 7 15 15 15 8 0
15 -7 15 -15 0 -8 9 -15 20 -15 13 0 18 -5 13 -16 -4 -10 1 -17 16 -21 24 -6
29 -33 6 -33 -8 0 -15 7 -15 15 0 8 -9 15 -20 15 -13 0 -20 -7 -20 -20 0 -11
7 -20 15 -20 8 0 15 -7 15 -15 0 -8 -7 -15 -15 -15 -8 0 -15 -9 -15 -20 0 -13
7 -20 20 -20 11 0 20 7 20 15 0 8 7 15 15 15 8 0 15 -7 15 -15 0 -8 -7 -15
-15 -15 -9 0 -18 -7 -21 -15 -4 -8 -12 -15 -20 -15 -8 0 -14 -10 -14 -25 0
-18 5 -25 20 -25 13 0 20 7 20 20 0 26 26 26 33 0 3 -11 12 -20 21 -20 9 0 16
-7 16 -15 0 -8 -9 -15 -20 -15 -13 0 -20 -7 -20 -19 0 -10 -9 -21 -20 -24 -26
-7 -26 -27 0 -34 11 -3 20 -14 20 -24 0 -12 7 -19 20 -19 11 0 20 -7 20 -15 0
-8 9 -15 20 -15 11 0 20 7 20 15 0 8 7 15 15 15 8 0 15 -7 15 -15 0 -8 -7 -15
-15 -15 -8 0 -15 -7 -15 -15 0 -19 -26 -19 -34 0 -8 23 -46 19 -46 -5 0 -13 7
-20 20 -20 11 0 20 -7 20 -15 0 -8 -9 -15 -20 -15 -27 0 -27 -40 0 -47 11 -3
20 -12 20 -19 0 -8 9 -14 20 -14 11 0 20 7 20 15 0 8 7 15 15 15 8 0 15 -7 15
-15 0 -8 -7 -15 -15 -15 -8 0 -15 -9 -15 -20 0 -11 7 -20 15 -20 8 0 15 -7 15
-15 0 -8 -7 -15 -15 -15 -9 0 -15 -9 -15 -25 0 -31 29 -34 37 -5 3 11 11 20
18 20 7 0 15 -9 18 -20 3 -11 12 -20 21 -20 23 0 20 -17 -4 -23 -12 -3 -20
-14 -20 -26 0 -14 6 -21 20 -21 11 0 20 -7 20 -15 0 -8 -9 -15 -20 -15 -13 0
-20 -7 -20 -20 0 -15 7 -20 25 -20 16 0 25 6 25 15 0 8 7 15 15 15 8 0 15 -7
15 -15 0 -8 7 -15 15 -15 8 0 15 -6 15 -14 0 -8 -7 -16 -15 -20 -19 -7 -20
-46 -1 -46 7 0 16 -9 19 -20 3 -11 12 -20 21 -20 9 0 16 -7 16 -15 0 -21 37
-19 50 2 10 17 10 17 20 0 6 -9 18 -17 25 -17 9 0 15 -10 15 -24 0 -16 -5 -23
-16 -22 -25 2 -29 -24 -5 -31 26 -7 29 -41 4 -39 -26 2 -22 -28 4 -32 16 -2
23 2 23 12 0 9 7 16 15 16 8 0 15 -7 15 -15 0 -8 9 -15 20 -15 13 0 20 -7 20
-20 0 -13 7 -20 20 -20 13 0 20 -7 20 -20 0 -11 7 -20 15 -20 8 0 15 -7 15
-16 0 -9 9 -18 20 -21 11 -3 20 -12 20 -19 0 -8 10 -14 25 -14 16 0 25 6 25
15 0 8 7 15 15 15 8 0 15 -7 15 -15 0 -8 7 -15 15 -15 9 0 15 -9 15 -21 0 -15
-5 -19 -15 -15 -11 4 -15 -1 -15 -19 0 -18 5 -25 20 -25 13 0 20 7 20 20 0 11
7 20 15 20 8 0 15 -9 15 -20 0 -13 7 -20 20 -20 13 0 20 7 20 20 0 11 7 20 15
20 8 0 15 -7 15 -16 0 -9 9 -18 20 -21 25 -7 22 -39 -3 -35 -11 2 -17 -4 -17
-18 0 -15 6 -20 25 -20 18 0 25 5 25 20 0 11 7 20 15 20 8 0 15 -9 15 -20 0
-13 7 -20 20 -20 13 0 20 7 20 20 0 13 7 20 20 20 11 0 20 7 20 15 0 8 7 15
16 15 9 0 14 -7 12 -17 -2 -10 -10 -18 -18 -18 -24 0 -17 -30 8 -33 17 -3 22
2 22 17 0 12 6 21 15 21 9 0 18 7 21 15 9 21 36 19 32 -2 -2 -11 -11 -17 -21
-15 -11 2 -17 -4 -17 -18 0 -14 7 -20 21 -20 14 0 19 -5 17 -17 -2 -10 -11
-17 -21 -17 -12 1 -17 -6 -17 -22 0 -17 6 -24 20 -24 13 0 20 7 20 20 0 11 7
20 15 20 8 0 15 -7 15 -16 0 -9 9 -18 20 -21 11 -3 20 -12 20 -19 0 -8 9 -14
20 -14 13 0 20 -7 20 -20 0 -13 7 -20 20 -20 14 0 20 7 20 21 0 15 -5 19 -15
15 -10 -4 -15 1 -15 14 0 11 7 20 15 20 8 0 15 9 15 20 0 11 7 20 15 20 8 0
15 -7 15 -16 0 -9 9 -18 20 -21 25 -7 22 -39 -3 -35 -11 2 -17 -4 -17 -18 0
-15 6 -20 25 -20 18 0 25 5 25 20 0 11 7 20 15 20 8 0 15 -9 15 -20 0 -13 7
-20 20 -20 13 0 20 7 20 20 0 11 7 20 15 20 8 0 15 -9 15 -20 0 -15 7 -20 25
-20 18 0 25 5 25 20 0 11 7 20 15 20 8 0 15 -9 15 -20 0 -13 7 -20 20 -20 13
0 20 7 20 20 0 11 7 20 15 20 8 0 15 -9 15 -20 0 -15 7 -20 25 -20 18 0 25 5
25 20 0 11 7 20 15 20 8 0 15 -9 15 -20 0 -13 7 -20 20 -20 13 0 20 7 20 20 0
11 7 20 15 20 8 0 15 -9 15 -20 0 -15 7 -20 25 -20 18 0 25 5 25 20 0 11 7 20
15 20 8 0 15 -9 15 -20 0 -13 7 -20 20 -20 13 0 20 7 20 20 0 11 7 20 15 20 8
0 15 -9 15 -20 0 -15 7 -20 25 -20 18 0 25 5 25 20 0 11 7 20 15 20 8 0 15 -9
15 -20 0 -13 7 -20 20 -20 13 0 20 7 20 20 0 14 -6 20 -17 18 -10 -2 -19 4
-21 15 -4 21 23 23 32 2 3 -8 12 -15 21 -15 9 0 15 -9 15 -21 0 -15 5 -20 23
-17 24 3 31 33 7 33 -8 0 -16 8 -18 18 -2 10 3 17 12 17 9 0 16 -7 16 -15 0
-8 9 -15 20 -15 13 0 20 -7 20 -20 0 -13 7 -20 20 -20 13 0 20 7 20 20 0 14
-6 20 -17 18 -10 -2 -19 4 -21 15 -2 12 3 17 17 17 14 0 21 6 21 20 0 11 7 20
15 20 8 0 15 -9 15 -20 0 -13 7 -20 20 -20 11 0 20 -7 20 -15 0 -14 -12 -19
-32 -16 -5 0 -8 -8 -8 -19 0 -15 7 -20 25 -20 18 0 25 5 25 20 0 11 7 20 15
20 8 0 15 -9 15 -20 0 -13 7 -20 20 -20 13 0 20 7 20 20 0 14 -6 20 -17 18
-10 -2 -19 4 -21 15 -2 12 3 17 17 17 14 0 21 6 21 20 0 11 6 20 14 20 7 0 16
-9 19 -20 7 -26 37 -26 44 0 7 26 33 26 33 0 0 -13 7 -20 20 -20 13 0 20 7 20
20 0 11 7 20 15 20 8 0 15 -9 15 -20 0 -13 7 -20 20 -20 15 0 20 7 20 26 0 19
-4 25 -15 20 -10 -4 -15 1 -15 14 0 11 7 20 15 20 8 0 15 9 15 20 0 13 7 20
20 20 13 0 20 -7 20 -20 0 -13 7 -20 20 -20 13 0 20 7 20 20 0 11 7 20 15 20
8 0 15 -9 15 -20 0 -15 7 -20 25 -20 18 0 25 5 25 20 0 11 7 20 15 20 8 0 15
-9 15 -20 0 -13 7 -20 20 -20 13 0 20 7 20 20 0 14 -6 20 -17 18 -10 -2 -19 4
-21 14 -2 13 3 18 17 18 14 0 21 6 21 20 0 11 7 20 15 20 8 0 15 -9 15 -20 0
-13 7 -20 20 -20 15 0 20 7 20 25 0 26 -15 34 -23 13 -3 -7 -6 -1 -6 15 -1 18
4 27 14 27 8 0 15 7 15 15 0 8 7 15 15 15 8 0 15 -7 15 -15 0 -9 9 -15 25 -15
19 0 25 5 25 21 0 16 -4 19 -20 14 -16 -5 -20 -2 -20 14 0 14 6 21 20 21 13 0
20 7 20 20 0 11 7 20 15 20 8 0 15 -9 15 -20 0 -13 7 -20 20 -20 15 0 20 7 20
25 0 26 -15 34 -23 13 -3 -7 -6 -1 -6 15 -1 18 4 27 14 27 8 0 15 6 15 14 0 7
9 16 20 19 11 3 20 12 20 21 0 9 8 16 20 16 13 0 20 7 20 20 0 11 6 20 14 20
21 0 30 20 17 33 -8 8 -18 4 -37 -16 -31 -33 -34 -33 -34 -2 0 18 5 25 20 25
11 0 20 7 20 15 0 8 7 15 16 15 9 0 18 9 21 20 3 11 12 20 19 20 22 0 16 33
-8 55 l-23 20 23 3 c12 2 22 10 22 18 0 8 10 14 26 14 22 0 25 -2 14 -15 -11
-13 -8 -15 14 -15 19 0 26 5 26 20 0 13 -7 20 -20 20 -11 0 -20 7 -20 15 0 8
9 15 20 15 13 0 20 7 20 19 0 30 -22 37 -38 13 -16 -25 -42 -29 -42 -7 0 7 -8
19 -17 25 -17 10 -17 10 0 20 9 6 17 18 17 25 0 9 10 15 26 15 22 0 24 -2 14
-15 -10 -12 -9 -16 3 -21 22 -8 37 3 37 27 0 12 -7 19 -20 19 -11 0 -20 7 -20
15 0 8 9 15 20 15 13 0 20 7 20 20 0 13 -7 20 -20 20 -11 0 -20 -7 -20 -15 0
-8 -9 -15 -20 -15 -11 0 -20 7 -20 15 0 8 9 15 20 15 11 0 20 6 20 14 0 7 9
16 20 19 12 3 20 14 20 26 0 14 -6 21 -20 21 -11 0 -20 7 -20 15 0 8 9 15 20
15 13 0 20 7 20 20 0 13 -7 20 -20 20 -11 0 -20 7 -20 15 0 8 9 15 20 15 15 0
20 7 20 25 0 18 -5 25 -20 25 -11 0 -20 7 -20 15 0 8 9 15 20 15 13 0 20 7 20
20 0 14 -7 20 -22 20 -12 0 -18 -3 -15 -7 9 -9 -12 -33 -29 -33 -8 0 -14 9
-14 20 0 11 -7 20 -15 20 -8 0 -15 7 -15 15 0 8 7 15 15 15 9 0 15 9 15 25 0
16 -6 25 -15 25 -8 0 -15 7 -15 15 0 8 7 15 15 15 8 0 15 9 15 20 0 11 -7 20
-15 20 -8 0 -15 7 -15 15 0 8 7 15 15 15 8 0 15 9 15 20 0 13 -7 20 -20 20
-11 0 -19 -5 -18 -12 2 -6 -5 -14 -14 -16 -11 -2 -18 2 -18 12 0 20 -39 21
-46 1 -4 -8 -12 -15 -20 -15 -8 0 -14 7 -14 15 0 8 -7 15 -15 15 -8 0 -15 9
-15 20 0 11 7 20 15 20 8 0 15 9 15 20 0 11 -7 20 -15 20 -8 0 -15 7 -15 15 0
8 7 15 16 15 10 0 14 7 12 22 -4 29 -28 35 -35 9 -7 -27 -29 -27 -36 0 -4 15
-11 20 -21 16 -11 -5 -16 0 -16 13 0 13 7 20 20 20 13 0 20 7 20 20 0 14 -7
20 -21 20 -12 0 -23 -8 -26 -20 -3 -11 -12 -20 -19 -20 -8 0 -14 -9 -14 -20 0
-11 7 -20 15 -20 8 0 15 -7 15 -15 0 -8 -7 -15 -15 -15 -8 0 -15 7 -15 15 0 9
-7 18 -15 21 -8 4 -15 12 -15 20 0 8 7 14 15 14 8 0 15 9 15 20 0 13 -7 20
-20 20 -13 0 -20 -7 -20 -20 0 -11 -7 -20 -15 -20 -8 0 -15 9 -15 20 0 13 -7
20 -20 20 -13 0 -20 -7 -20 -20 0 -11 7 -20 15 -20 8 0 15 -6 15 -14 0 -8 -7
-16 -15 -20 -8 -3 -15 -12 -15 -21 0 -8 -7 -15 -15 -15 -8 0 -15 7 -15 15 0 8
7 15 15 15 8 0 15 9 15 20 0 11 -6 20 -14 20 -7 0 -16 9 -19 20 -3 12 -14 20
-26 20 -14 0 -21 -6 -21 -20 0 -11 -7 -20 -15 -20 -8 0 -15 9 -15 20 0 13 -7
20 -20 20 -13 0 -20 -7 -20 -20 0 -11 7 -20 15 -20 8 0 15 -6 15 -14 0 -8 -7
-16 -15 -20 -8 -3 -15 -12 -15 -21 0 -8 -9 -15 -20 -15 -11 0 -20 7 -20 15 0
9 -7 18 -15 21 -8 4 -15 12 -15 20 0 8 7 14 15 14 8 0 15 9 15 20 0 13 -7 20
-20 20 -13 0 -20 -7 -20 -20 0 -11 -7 -20 -15 -20 -8 0 -15 9 -15 20 0 13 -7
20 -20 20 -13 0 -20 -7 -20 -20 0 -11 7 -20 15 -20 8 0 15 -6 15 -14 0 -8 -7
-16 -15 -20 -8 -3 -15 -12 -15 -21 0 -8 -7 -15 -15 -15 -8 0 -15 7 -15 15 0 8
7 15 15 15 8 0 15 9 15 20 0 11 -6 20 -14 20 -7 0 -16 9 -19 20 -7 27 -47 27
-47 0 0 -13 7 -20 20 -20 13 0 20 -7 20 -20 0 -13 -5 -18 -16 -13 -10 4 -17
-1 -21 -16 -7 -27 -29 -27 -36 -1 -7 26 -27 26 -34 0 -6 -23 -33 -27 -33 -5 0
8 7 15 15 15 8 0 15 9 15 20 0 11 -7 20 -15 20 -8 0 -15 9 -15 20 0 15 -7 20
-25 20 -18 0 -25 -5 -25 -20 0 -13 7 -20 20 -20 13 0 20 -7 20 -20 0 -11 -3
-19 -7 -19 -21 3 -33 -2 -33 -16 0 -23 -27 -18 -33 6 -7 26 -31 20 -35 -9 -2
-15 2 -22 12 -22 9 0 16 -7 16 -15 0 -8 -7 -15 -15 -15 -8 0 -15 -9 -15 -20 0
-11 7 -20 15 -20 8 0 15 -9 15 -20 0 -11 -7 -20 -15 -20 -8 0 -15 9 -15 20 0
13 -7 20 -20 20 -13 0 -20 -7 -20 -20 0 -11 -7 -20 -15 -20 -23 0 -18 37 6 43
26 7 20 31 -9 35 -16 3 -22 -2 -22 -16 0 -12 -9 -22 -21 -25 -15 -4 -20 -11
-16 -21 5 -11 0 -16 -13 -16 -11 0 -20 -7 -20 -15 0 -8 -7 -15 -15 -15 -8 0
-15 7 -15 15 0 8 7 15 15 15 8 0 15 9 15 20 0 11 -7 20 -15 20 -8 0 -15 9 -15
20 0 15 -7 20 -25 20 -18 0 -25 -5 -25 -20 0 -11 -7 -20 -15 -20 -8 0 -15 9
-15 20 0 13 -7 20 -20 20 -13 0 -20 -7 -20 -20 0 -11 7 -20 15 -20 8 0 15 -9
15 -20 0 -11 -7 -20 -15 -20 -8 0 -15 -7 -15 -15 0 -8 -7 -15 -15 -15 -8 0
-15 7 -15 15 0 8 7 15 15 15 8 0 15 9 15 20 0 11 -7 20 -15 20 -8 0 -15 9 -15
20 0 13 -7 20 -20 20 -11 0 -20 7 -20 15 0 9 9 15 21 15 15 0 20 5 17 22 -4
30 -38 37 -45 9 -7 -27 -29 -27 -36 -1 -7 26 -27 26 -34 0 -3 -11 -12 -20 -19
-20 -22 0 -16 27 6 33 11 3 20 12 20 21 0 9 7 16 15 16 8 0 15 9 15 20 0 13
-7 20 -20 20 -13 0 -20 -7 -20 -20 0 -11 -7 -20 -15 -20 -8 0 -15 9 -15 20 0
13 -7 20 -20 20 -11 0 -20 7 -20 15 0 8 9 15 20 15 13 0 20 7 20 20 0 11 7 20
15 20 8 0 15 -9 15 -20 0 -13 7 -20 20 -20 25 0 27 35 3 50 -17 10 -17 10 0
20 24 15 22 50 -3 50 -13 0 -20 -7 -20 -20 0 -11 -7 -20 -15 -20 -8 0 -15 9
-15 20 0 13 -7 20 -20 20 -11 0 -20 7 -20 15 0 8 9 15 20 15 13 0 20 7 20 20
0 13 -7 20 -20 20 -11 0 -20 6 -20 14 0 7 9 16 20 19 11 3 20 13 20 22 0 9 -9
19 -20 22 -11 3 -20 12 -20 19 0 8 9 14 20 14 13 0 20 7 20 20 0 13 -7 20 -20
20 -11 0 -20 6 -20 14 0 7 9 16 20 19 11 3 20 13 20 22 0 9 -9 19 -20 22 -11
3 -20 12 -20 19 0 8 9 14 20 14 13 0 20 7 20 20 0 13 -7 20 -20 20 -11 0 -20
6 -20 14 0 7 9 16 20 19 11 3 20 13 20 22 0 9 -9 19 -20 22 -11 3 -20 12 -20
19 0 8 9 14 20 14 11 0 20 7 20 15 0 8 7 15 15 15 8 0 15 -7 15 -15 0 -8 9
-15 20 -15 13 0 20 7 20 20 0 11 -7 20 -15 20 -8 0 -15 7 -15 15 0 8 7 15 15
15 8 0 15 9 15 20 0 11 -6 20 -14 20 -7 0 -16 9 -19 20 -3 11 -12 20 -21 20
-9 0 -16 7 -16 15 0 22 27 18 33 -5 6 -23 37 -17 37 6 0 8 7 14 15 14 8 0 15
-6 15 -14 0 -16 19 -25 38 -19 6 3 12 11 12 19 0 22 27 16 33 -7 7 -26 31 -20
35 9 3 17 -2 22 -17 22 -12 0 -21 6 -21 15 0 8 9 15 20 15 13 0 20 7 20 20 0
11 7 20 15 20 8 0 15 -9 15 -20 0 -13 7 -20 19 -20 10 0 21 -9 24 -20 3 -11
12 -20 21 -20 9 0 16 -7 16 -15 0 -8 9 -15 20 -15 13 0 20 7 20 20 0 13 -7 20
-20 20 -11 0 -20 7 -20 15 0 9 9 15 21 15 15 0 20 5 17 22 -4 29 -28 35 -35 9
-6 -24 -33 -29 -33 -6 0 8 7 15 15 15 8 0 15 9 15 20 0 13 7 20 20 20 13 0 18
-5 13 -16 -4 -10 1 -17 16 -21 12 -3 21 -13 21 -24 0 -12 7 -19 20 -19 11 0
20 -7 20 -15 0 -8 -9 -15 -20 -15 -13 0 -20 -7 -20 -19 0 -27 28 -34 42 -11
16 26 34 25 41 0 6 -23 37 -17 37 6 0 8 7 14 15 14 8 0 15 -6 15 -14 0 -16 19
-25 38 -19 6 3 12 11 12 19 0 8 7 14 15 14 8 0 15 -7 15 -15 0 -8 7 -15 15
-15 8 0 15 -9 15 -20 0 -11 -7 -20 -15 -20 -8 0 -15 -9 -15 -20 0 -13 7 -20
20 -20 13 0 20 7 20 20 0 11 7 20 15 20 8 0 15 -9 15 -20 0 -13 7 -20 20 -20
13 0 20 -7 20 -20 0 -13 7 -20 20 -20 11 0 20 -7 20 -15 0 -8 9 -15 20 -15 13
0 20 7 20 20 0 13 -7 20 -20 20 -11 0 -20 7 -20 15 0 8 9 15 20 15 13 0 20 7
20 20 0 11 7 20 15 20 8 0 15 -9 15 -20 0 -13 7 -20 20 -20 11 0 20 -7 20 -15
0 -8 -9 -15 -20 -15 -13 0 -20 -7 -20 -20 0 -13 7 -20 20 -20 11 0 20 7 20 15
0 8 9 15 20 15 11 0 20 -7 20 -15 0 -8 9 -15 20 -15 13 0 20 7 20 20 0 13 -7
20 -20 20 -11 0 -20 7 -20 15 0 8 9 15 20 15 13 0 20 7 20 20 0 11 7 20 15 20
8 0 15 -9 15 -20 0 -13 7 -20 20 -20 11 0 20 -7 20 -15 0 -8 -9 -15 -20 -15
-13 0 -20 -7 -20 -20 0 -15 7 -20 25 -20 16 0 25 6 25 15 0 8 7 15 15 15 8 0
15 -7 15 -15 0 -8 9 -15 20 -15 13 0 20 7 20 20 0 13 -7 20 -20 20 -11 0 -20
7 -20 15 0 8 9 15 20 15 13 0 20 7 20 20 0 11 7 20 15 20 8 0 15 -9 15 -20 0
-13 7 -20 20 -20 13 0 20 7 20 20 0 11 -7 20 -15 20 -8 0 -15 9 -15 21 0 12 4
17 11 14 6 -4 13 2 16 14 6 23 33 29 33 7 0 -16 19 -25 38 -19 6 3 12 11 12
19 0 8 7 14 15 14 8 0 15 -6 15 -14 0 -23 31 -29 37 -6 7 25 25 26 41 0 14
-23 42 -16 42 11 0 12 -7 19 -20 19 -11 0 -20 7 -20 15 0 8 9 15 20 15 13 0
20 7 20 19 0 27 -28 34 -42 11 -17 -26 -34 -25 -41 1 -3 12 -10 18 -16 14 -7
-3 -11 2 -11 14 0 12 7 21 15 21 8 0 15 7 15 15 0 8 6 15 14 15 8 0 16 -7 20
-15 8 -23 46 -19 46 5 0 13 -7 20 -20 20 -11 0 -20 7 -20 15 0 8 9 15 20 15
14 0 20 7 20 21 0 14 5 19 18 17 10 -2 16 -11 14 -21 -2 -11 4 -17 18 -17 25
0 27 35 3 50 -17 10 -17 10 0 20 9 6 17 18 17 25 0 8 9 15 20 15 14 0 20 -7
20 -21 0 -28 34 -21 38 9 3 17 -2 22 -17 22 -12 0 -21 6 -21 15 0 8 9 15 20
15 13 0 20 7 20 20 0 13 -7 20 -20 20 -11 0 -20 -7 -20 -15 0 -8 -9 -15 -20
-15 -11 0 -20 7 -20 15 0 8 -7 15 -15 15 -8 0 -15 7 -15 15 0 8 7 15 15 15 8
0 15 9 15 20 0 13 7 20 20 20 14 0 20 -7 20 -21 0 -28 34 -21 38 9 3 17 -2 22
-17 22 -12 0 -21 6 -21 15 0 8 9 15 20 15 13 0 20 7 20 20 0 15 -7 20 -26 20
-22 0 -25 -2 -14 -15 11 -13 8 -15 -14 -15 -16 0 -26 5 -26 15 0 8 -9 15 -20
15 -13 0 -18 5 -14 15 4 8 12 15 20 15 8 0 14 9 14 20 0 13 7 20 20 20 13 0
20 -7 20 -20 0 -13 7 -20 20 -20 15 0 20 7 20 25 0 18 -5 25 -20 25 -11 0 -20
7 -20 15 0 8 9 15 20 15 13 0 20 7 20 20 0 13 -7 20 -19 20 -10 0 -21 -9 -24
-20 -3 -11 -12 -20 -21 -20 -9 0 -16 8 -16 20 0 11 -7 20 -15 20 -8 0 -15 7
-15 15 0 8 7 15 15 15 8 0 15 9 15 20 0 12 7 20 16 20 9 0 18 -9 21 -20 3 -11
14 -20 24 -20 26 0 25 40 -1 47 -11 3 -20 12 -20 19 0 8 -9 14 -20 14 -13 0
-20 7 -20 20 0 11 -7 20 -15 20 -8 0 -15 7 -15 15 0 8 7 15 15 15 8 0 15 9 15
20 0 11 -7 20 -15 20 -8 0 -15 7 -15 16 0 9 -9 18 -20 21 -25 7 -27 36 -2 31
9 -2 17 -10 17 -18 0 -24 30 -17 33 8 2 15 -2 22 -12 22 -9 0 -16 7 -16 15 0
8 7 15 15 15 8 0 15 9 15 20 0 14 -7 20 -21 20 -15 0 -19 -5 -15 -15 4 -10 -1
-15 -14 -15 -11 0 -20 7 -20 15 0 8 -9 15 -20 15 -11 0 -23 -7 -26 -15 -4 -8
-12 -15 -20 -15 -8 0 -14 7 -14 15 0 8 -7 15 -15 15 -8 0 -15 9 -15 20 0 11 7
20 15 20 8 0 15 7 15 15 0 8 6 15 14 15 8 0 16 -7 20 -15 8 -23 46 -19 46 5 0
13 -7 20 -20 20 -11 0 -20 7 -20 15 0 8 9 15 20 15 13 0 20 7 20 19 0 30 -21
37 -41 13 -20 -26 -39 -29 -39 -7 0 9 -7 18 -15 21 -8 4 -15 10 -15 15 0 5 7
9 15 9 8 0 15 -7 15 -15 0 -8 9 -15 20 -15 11 0 20 6 20 14 0 7 9 16 20 19 12
3 20 14 20 27 0 16 -5 21 -22 18 -15 -2 -22 -9 -22 -21 1 -10 -5 -17 -17 -17
-12 0 -19 7 -19 20 0 11 -7 20 -15 20 -8 0 -15 7 -15 16 0 9 -9 18 -20 21 -11
3 -20 12 -20 19 0 8 -9 14 -20 14 -11 0 -20 7 -20 15 0 8 9 15 20 15 15 0 20
7 20 25 0 32 -39 36 -47 5 -3 -11 -12 -20 -19 -20 -8 0 -14 9 -14 20 0 13 -7
20 -20 20 -13 0 -20 -7 -20 -20 0 -11 -7 -20 -15 -20 -8 0 -15 9 -15 20 0 13
-7 20 -20 20 -13 0 -20 -7 -20 -20 0 -11 -6 -20 -14 -20 -7 0 -16 9 -19 20 -3
11 -12 20 -21 20 -9 0 -16 7 -16 15 0 8 9 15 20 15 13 0 20 7 20 20 0 15 -7
20 -25 20 -16 0 -25 -6 -25 -15 0 -8 -7 -15 -15 -15 -8 0 -15 7 -15 15 0 8 -9
15 -20 15 -11 0 -20 -7 -20 -15 0 -8 -9 -15 -20 -15 -11 0 -20 7 -20 15 0 8
-9 15 -20 15 -11 0 -20 -7 -20 -15 0 -8 -7 -15 -15 -15 -8 0 -15 7 -15 15 0 8
-9 15 -20 15 -11 0 -20 7 -20 15 0 8 9 15 20 15 15 0 20 7 20 25 0 18 -5 25
-20 25 -13 0 -20 -7 -20 -20 0 -11 -6 -20 -14 -20 -7 0 -16 9 -19 20 -3 11
-13 20 -22 20 -9 0 -19 -9 -22 -20 -3 -11 -12 -20 -19 -20 -8 0 -14 9 -14 20
0 13 -7 20 -20 20 -13 0 -20 -7 -20 -20 0 -11 -7 -20 -15 -20 -8 0 -15 7 -15
16 0 9 -9 18 -20 21 -11 3 -20 12 -20 19 0 8 9 14 20 14 13 0 20 7 20 20 0 15
-7 20 -25 20 -18 0 -25 -5 -25 -20 0 -11 -7 -20 -15 -20 -8 0 -15 9 -15 20 0
13 -7 20 -20 20 -13 0 -20 -7 -20 -20 0 -11 7 -20 15 -20 8 0 15 -7 15 -15 0
-11 -12 -15 -50 -15 -36 0 -50 4 -50 14 0 7 9 16 21 19 26 7 20 31 -9 35 -17
3 -22 -2 -22 -17 0 -12 -6 -21 -15 -21 -9 0 -18 -7 -21 -15 -4 -11 -21 -15
-55 -15 -37 0 -49 4 -49 15 0 8 9 15 20 15 13 0 20 7 20 20 0 15 -7 20 -25 20
-18 0 -25 -5 -25 -20 0 -11 -7 -20 -15 -20 -8 0 -15 9 -15 20 0 13 -7 20 -20
20 -13 0 -20 -7 -20 -20 0 -11 7 -20 15 -20 8 0 15 -7 15 -15 0 -11 -12 -15
-50 -15 -38 0 -50 4 -50 15 0 8 9 15 20 15 13 0 20 7 20 20 0 15 -7 20 -25 20
-18 0 -25 -5 -25 -20 0 -11 -7 -20 -15 -20 -8 0 -15 -7 -15 -15 0 -12 -13 -15
-55 -15 -42 0 -55 3 -55 15 0 8 9 15 20 15 13 0 20 7 20 20 0 15 -7 20 -25 20
-18 0 -25 -5 -25 -20 0 -11 -7 -20 -15 -20 -8 0 -15 -7 -15 -15 0 -8 -9 -15
-20 -15 -13 0 -20 -7 -20 -20 0 -11 -7 -20 -15 -20 -8 0 -15 9 -15 20 0 13 -7
20 -20 20 -11 0 -20 7 -20 15 0 8 9 15 20 15 13 0 20 7 20 20 0 15 -7 20 -25
20 -18 0 -25 -5 -25 -20z m0 -75 c0 -8 -7 -15 -15 -15 -8 0 -15 7 -15 15 0 8
7 15 15 15 8 0 15 -7 15 -15z m150 0 c0 -8 -7 -15 -15 -15 -8 0 -15 7 -15 15
0 8 7 15 15 15 8 0 15 -7 15 -15z m150 0 c0 -8 -7 -15 -15 -15 -8 0 -15 7 -15
15 0 8 7 15 15 15 8 0 15 -7 15 -15z m150 0 c0 -8 -7 -15 -15 -15 -8 0 -15 7
-15 15 0 8 7 15 15 15 8 0 15 -7 15 -15z m150 0 c0 -8 -7 -15 -15 -15 -8 0
-15 7 -15 15 0 8 7 15 15 15 8 0 15 -7 15 -15z m150 0 c0 -8 -7 -15 -15 -15
-8 0 -15 7 -15 15 0 8 7 15 15 15 8 0 15 -7 15 -15z m-930 -40 c0 -8 -7 -15
-15 -15 -8 0 -15 7 -15 15 0 8 7 15 15 15 8 0 15 -7 15 -15z m70 0 c0 -8 -7
-15 -15 -15 -8 0 -15 7 -15 15 0 8 7 15 15 15 8 0 15 -7 15 -15z m80 0 c0 -8
-7 -15 -15 -15 -8 0 -15 7 -15 15 0 8 7 15 15 15 8 0 15 -7 15 -15z m70 0 c0
-8 -7 -15 -15 -15 -8 0 -15 7 -15 15 0 8 7 15 15 15 8 0 15 -7 15 -15z m80 0
c0 -8 -9 -15 -20 -15 -11 0 -20 7 -20 15 0 8 9 15 20 15 11 0 20 -7 20 -15z
m70 0 c0 -8 -7 -15 -15 -15 -8 0 -15 7 -15 15 0 8 7 15 15 15 8 0 15 -7 15
-15z m80 0 c0 -8 -7 -15 -15 -15 -8 0 -15 7 -15 15 0 8 7 15 15 15 8 0 15 -7
15 -15z m70 0 c0 -8 -7 -15 -15 -15 -8 0 -15 7 -15 15 0 8 7 15 15 15 8 0 15
-7 15 -15z m70 0 c0 -8 -7 -15 -15 -15 -8 0 -15 7 -15 15 0 8 7 15 15 15 8 0
15 -7 15 -15z m80 0 c0 -8 -7 -15 -15 -15 -8 0 -15 7 -15 15 0 8 7 15 15 15 8
0 15 -7 15 -15z m74 0 c4 -10 -1 -15 -14 -15 -11 0 -20 7 -20 15 0 8 6 15 14
15 8 0 16 -7 20 -15z m76 0 c0 -8 -7 -15 -15 -15 -8 0 -15 7 -15 15 0 8 7 15
15 15 8 0 15 -7 15 -15z m70 0 c0 -8 -7 -15 -15 -15 -8 0 -15 7 -15 15 0 8 7
15 15 15 8 0 15 -7 15 -15z m80 0 c0 -8 -7 -15 -15 -15 -8 0 -15 7 -15 15 0 8
7 15 15 15 8 0 15 -7 15 -15z m70 0 c0 -8 -7 -15 -15 -15 -8 0 -15 7 -15 15 0
8 7 15 15 15 8 0 15 -7 15 -15z m80 0 c0 -8 -7 -15 -15 -15 -8 0 -15 7 -15 15
0 8 7 15 15 15 8 0 15 -7 15 -15z m-1160 -30 c0 -8 -7 -15 -15 -15 -8 0 -15 7
-15 15 0 8 7 15 15 15 8 0 15 -7 15 -15z m150 0 c0 -8 -7 -15 -15 -15 -8 0
-15 7 -15 15 0 8 7 15 15 15 8 0 15 -7 15 -15z m1048 -3 c2 -7 -3 -12 -12 -12
-9 0 -16 7 -16 16 0 17 22 14 28 -4z m-1388 -37 c0 -8 -7 -15 -15 -15 -8 0
-15 7 -15 15 0 8 7 15 15 15 8 0 15 -7 15 -15z m80 0 c0 -8 -7 -15 -15 -15 -8
0 -15 7 -15 15 0 8 7 15 15 15 8 0 15 -7 15 -15z m70 0 c0 -8 -7 -15 -15 -15
-8 0 -15 7 -15 15 0 8 7 15 15 15 8 0 15 -7 15 -15z m80 0 c0 -8 -7 -15 -15
-15 -8 0 -15 7 -15 15 0 8 7 15 15 15 8 0 15 -7 15 -15z m70 0 c0 -8 -7 -15
-15 -15 -8 0 -15 7 -15 15 0 8 7 15 15 15 8 0 15 -7 15 -15z m900 0 c0 -8 -7
-15 -15 -15 -8 0 -15 7 -15 15 0 8 7 15 15 15 8 0 15 -7 15 -15z m150 0 c0 -8
-7 -15 -15 -15 -8 0 -15 7 -15 15 0 8 7 15 15 15 8 0 15 -7 15 -15z m70 0 c0
-8 -7 -15 -15 -15 -8 0 -15 7 -15 15 0 8 7 15 15 15 8 0 15 -7 15 -15z m80 0
c0 -8 -7 -15 -15 -15 -8 0 -15 7 -15 15 0 8 7 15 15 15 8 0 15 -7 15 -15z m70
0 c0 -8 -7 -15 -15 -15 -8 0 -15 7 -15 15 0 8 7 15 15 15 8 0 15 -7 15 -15z
m-1606 -40 c4 -10 -1 -15 -14 -15 -11 0 -20 7 -20 15 0 8 6 15 14 15 8 0 16
-7 20 -15z m1646 0 c0 -8 -7 -15 -15 -15 -8 0 -15 7 -15 15 0 8 7 15 15 15 8
0 15 -7 15 -15z m-1830 -40 c0 -8 7 -15 15 -15 8 0 15 -7 15 -15 0 -8 -7 -15
-15 -15 -8 0 -15 7 -15 15 0 8 -7 15 -15 15 -8 0 -15 7 -15 15 0 8 7 15 15 15
8 0 15 -7 15 -15z m70 0 c0 -8 -7 -15 -15 -15 -8 0 -15 7 -15 15 0 8 7 15 15
15 8 0 15 -7 15 -15z m80 0 c0 -8 -7 -15 -15 -15 -8 0 -15 7 -15 15 0 8 7 15
15 15 8 0 15 -7 15 -15z m70 0 c0 -8 -7 -15 -15 -15 -8 0 -15 7 -15 15 0 8 7
15 15 15 8 0 15 -7 15 -15z m80 0 c0 -8 -7 -15 -15 -15 -8 0 -15 7 -15 15 0 8
7 15 15 15 8 0 15 -7 15 -15z m1490 0 c0 -8 -7 -15 -15 -15 -8 0 -15 7 -15 15
0 8 7 15 15 15 8 0 15 -7 15 -15z m80 0 c0 -8 -7 -15 -15 -15 -8 0 -15 7 -15
15 0 8 7 15 15 15 8 0 15 -7 15 -15z m70 0 c0 -8 -7 -15 -15 -15 -8 0 -15 -7
-15 -15 0 -8 -7 -15 -15 -15 -8 0 -15 7 -15 15 0 8 7 15 15 15 8 0 15 7 15 15
0 8 7 15 15 15 8 0 15 -7 15 -15z m80 0 c0 -8 7 -15 15 -15 8 0 15 -7 15 -15
0 -8 -7 -15 -15 -15 -8 0 -15 7 -15 15 0 8 -7 15 -15 15 -8 0 -15 7 -15 15 0
8 7 15 15 15 8 0 15 -7 15 -15z m-2060 -30 c0 -8 -7 -15 -15 -15 -8 0 -15 7
-15 15 0 8 7 15 15 15 8 0 15 -7 15 -15z m150 0 c0 -8 -7 -15 -15 -15 -8 0
-15 7 -15 15 0 8 7 15 15 15 8 0 15 -7 15 -15z m1870 0 c0 -8 -7 -15 -15 -15
-8 0 -15 7 -15 15 0 8 7 15 15 15 8 0 15 -7 15 -15z m-1980 -40 c0 -8 -7 -15
-15 -15 -8 0 -15 7 -15 15 0 8 7 15 15 15 8 0 15 -7 15 -15z m70 0 c0 -8 -7
-15 -15 -15 -8 0 -15 7 -15 15 0 8 7 15 15 15 8 0 15 -7 15 -15z m1800 0 c0
-8 -7 -15 -15 -15 -8 0 -15 7 -15 15 0 8 7 15 15 15 8 0 15 -7 15 -15z m70 0
c0 -8 -7 -15 -15 -15 -8 0 -15 7 -15 15 0 8 7 15 15 15 8 0 15 -7 15 -15z m80
0 c0 -8 -7 -15 -15 -15 -8 0 -15 7 -15 15 0 8 7 15 15 15 8 0 15 -7 15 -15z
m70 0 c0 -8 -7 -15 -15 -15 -8 0 -15 7 -15 15 0 8 7 15 15 15 8 0 15 -7 15
-15z m40 -40 c0 -8 -7 -15 -15 -15 -8 0 -15 7 -15 15 0 8 7 15 15 15 8 0 15
-7 15 -15z m-2282 -45 c-2 -6 -8 -6 -18 0 -13 9 -13 11 0 20 15 10 25 0 18
-20z m72 11 c0 -5 -7 -11 -15 -15 -9 -3 -15 0 -15 9 0 8 7 15 15 15 8 0 15 -4
15 -9z m80 -6 c0 -9 -6 -12 -15 -9 -8 4 -15 10 -15 15 0 5 7 9 15 9 8 0 15 -7
15 -15z m2090 6 c0 -5 -7 -11 -15 -15 -9 -3 -15 0 -15 9 0 8 7 15 15 15 8 0
15 -4 15 -9z m-2280 -36 c0 -8 -7 -15 -15 -15 -8 0 -15 7 -15 15 0 8 7 15 15
15 8 0 15 -7 15 -15z m2320 0 c0 -8 -7 -15 -15 -15 -8 0 -15 7 -15 15 0 8 7
15 15 15 8 0 15 -7 15 -15z m-2360 -40 c0 -8 -7 -15 -15 -15 -8 0 -15 7 -15
15 0 8 7 15 15 15 8 0 15 -7 15 -15z m80 0 c0 -8 -7 -15 -15 -15 -8 0 -15 7
-15 15 0 8 7 15 15 15 8 0 15 -7 15 -15z m70 0 c0 -8 -7 -15 -15 -15 -8 0 -15
7 -15 15 0 8 7 15 15 15 8 0 15 -7 15 -15z m2170 0 c0 -8 -7 -15 -15 -15 -8 0
-15 7 -15 15 0 8 7 15 15 15 8 0 15 -7 15 -15z m80 0 c0 -8 -7 -15 -15 -15 -8
0 -15 7 -15 15 0 8 7 15 15 15 8 0 15 -7 15 -15z m-2430 -40 c0 -8 7 -15 15
-15 8 0 15 -9 15 -20 0 -11 -7 -20 -15 -20 -8 0 -15 9 -15 20 0 13 -7 20 -20
20 -13 0 -20 -7 -20 -20 0 -11 -7 -20 -15 -20 -8 0 -15 9 -15 20 0 11 7 20 15
20 8 0 15 7 15 15 0 8 9 15 20 15 11 0 20 -7 20 -15z m1555 -24 c137 -28 213
-53 332 -112 128 -63 186 -118 204 -192 16 -65 16 -308 0 -364 -14 -49 -34
-73 -63 -73 -12 0 -70 32 -130 71 -185 120 -317 172 -483 189 -163 17 -325 -9
-445 -70 -226 -115 -388 -389 -436 -735 -20 -141 -20 -407 0 -550 75 -549 397
-827 901 -776 164 17 331 81 525 201 83 52 119 52 137 0 15 -45 17 -331 2
-384 -16 -56 -44 -91 -115 -137 -209 -136 -579 -215 -886 -189 -311 27 -545
110 -743 265 -171 133 -300 321 -385 560 -133 375 -143 923 -24 1332 100 347
307 630 580 797 146 89 375 164 561 185 131 14 350 6 468 -18z m-1635 -46 c0
-8 -7 -15 -15 -15 -8 0 -15 7 -15 15 0 8 7 15 15 15 8 0 15 -7 15 -15z m-40
-40 c0 -8 -7 -15 -15 -15 -8 0 -15 7 -15 15 0 8 7 15 15 15 8 0 15 -7 15 -15z
m80 0 c0 -8 -7 -15 -15 -15 -8 0 -15 7 -15 15 0 8 7 15 15 15 8 0 15 -7 15
-15z m70 0 c0 -8 -7 -15 -15 -15 -8 0 -15 7 -15 15 0 8 7 15 15 15 8 0 15 -7
15 -15z m2400 0 c0 -8 -7 -15 -15 -15 -8 0 -15 7 -15 15 0 8 7 15 15 15 8 0
15 -7 15 -15z m78 -2 c2 -8 -5 -13 -17 -13 -12 0 -21 6 -21 16 0 18 31 15 38
-3z m-2653 -48 c28 -29 32 -45 10 -45 -8 0 -15 9 -15 20 0 13 -7 20 -20 20
-13 0 -20 -7 -20 -20 0 -11 -7 -20 -15 -20 -8 0 -15 9 -15 21 0 11 4 17 10 14
5 -3 15 3 22 15 7 11 14 20 15 20 1 0 14 -11 28 -25z m2647 -20 c9 -12 0 -25
-18 -25 -8 0 -14 9 -14 20 0 20 19 23 32 5z m-2732 -40 c0 -8 -7 -15 -15 -15
-8 0 -15 7 -15 15 0 8 7 15 15 15 8 0 15 -7 15 -15z m40 -40 c0 -8 -7 -15 -15
-15 -8 0 -15 7 -15 15 0 8 7 15 15 15 8 0 15 -7 15 -15z m70 0 c0 -8 -7 -15
-15 -15 -8 0 -15 7 -15 15 0 8 7 15 15 15 8 0 15 -7 15 -15z m2628 -2 c2 -8
-5 -13 -17 -13 -12 0 -21 6 -21 16 0 18 31 15 38 -3z m-2698 -68 c0 -8 -7 -15
-15 -15 -8 0 -15 7 -15 15 0 8 7 15 15 15 8 0 15 -7 15 -15z m2694 0 c4 -10
-1 -15 -14 -15 -11 0 -20 7 -20 15 0 8 6 15 14 15 8 0 16 -7 20 -15z m80 0 c4
-10 -1 -15 -14 -15 -11 0 -20 7 -20 15 0 8 6 15 14 15 8 0 16 -7 20 -15z
m-2884 -40 c0 -8 -7 -15 -15 -15 -8 0 -15 7 -15 15 0 8 7 15 15 15 8 0 15 -7
15 -15z m30 -40 c0 -8 -7 -15 -15 -15 -8 0 -15 7 -15 15 0 8 7 15 15 15 8 0
15 -7 15 -15z m-30 -40 c0 -8 -7 -15 -15 -15 -8 0 -15 7 -15 15 0 8 7 15 15
15 8 0 15 -7 15 -15z m-40 -30 c0 -8 -7 -15 -15 -15 -8 0 -15 7 -15 15 0 8 7
15 15 15 8 0 15 -7 15 -15z m2923 0 c-3 -17 -30 -17 -37 0 -4 13 -1 16 17 13
12 -2 21 -7 20 -13z m-2963 -40 c0 -8 -7 -15 -15 -15 -8 0 -15 7 -15 15 0 8 7
15 15 15 8 0 15 -7 15 -15z m40 -40 c0 -8 -7 -15 -15 -15 -8 0 -15 7 -15 15 0
8 7 15 15 15 8 0 15 -7 15 -15z m0 -70 c0 -8 -7 -15 -15 -15 -8 0 -15 7 -15
15 0 8 7 15 15 15 8 0 15 -7 15 -15z m2848 -2 c2 -8 -5 -13 -17 -13 -12 0 -21
6 -21 16 0 18 31 15 38 -3z m75 2 c1 -5 -6 -11 -15 -13 -11 -2 -18 3 -18 13 0
17 30 18 33 0z m-80 -80 c1 -5 -6 -11 -15 -13 -11 -2 -18 3 -18 13 0 17 30 18
33 0z m45 -32 c2 -8 -5 -13 -17 -13 -12 0 -21 6 -21 16 0 18 31 15 38 -3z
m-3038 -38 c0 -8 -7 -15 -15 -15 -8 0 -15 7 -15 15 0 8 7 15 15 15 8 0 15 -7
15 -15z m70 0 c0 -8 -7 -15 -15 -15 -8 0 -15 7 -15 15 0 8 7 15 15 15 8 0 15
-7 15 -15z m2923 0 c1 -5 -6 -11 -15 -13 -11 -2 -18 3 -18 13 0 17 30 18 33 0z
m80 0 c1 -5 -6 -11 -15 -13 -11 -2 -18 3 -18 13 0 17 30 18 33 0z m-40 -40 c1
-5 -6 -11 -15 -13 -11 -2 -18 3 -18 13 0 17 30 18 33 0z m-2963 -34 c0 -5 -7
-11 -15 -15 -9 -3 -15 0 -15 9 0 8 7 15 15 15 8 0 15 -4 15 -9z m2850 -6 c0
-9 -6 -12 -15 -9 -8 4 -15 10 -15 15 0 5 7 9 15 9 8 0 15 -7 15 -15z m80 6 c0
-5 -9 -11 -20 -14 -13 -3 -20 0 -20 9 0 8 9 14 20 14 11 0 20 -4 20 -9z
m-3000 -76 c0 -8 -7 -15 -15 -15 -8 0 -15 7 -15 15 0 8 7 15 15 15 8 0 15 -7
15 -15z m1790 0 c0 -8 -7 -15 -15 -15 -8 0 -15 7 -15 15 0 8 7 15 15 15 8 0
15 -7 15 -15z m-1790 -73 c0 -10 -7 -19 -15 -19 -8 0 -15 9 -15 19 0 10 7 18
15 18 8 0 15 -8 15 -18z m1720 0 c0 -10 -7 -19 -15 -19 -8 0 -15 9 -15 19 0
10 7 18 15 18 8 0 15 -8 15 -18z m70 4 c0 -8 -7 -16 -15 -20 -8 -3 -15 -12
-15 -21 0 -8 -7 -15 -15 -15 -8 0 -15 7 -15 15 0 8 7 15 15 15 8 0 15 9 15 20
0 11 7 20 15 20 8 0 15 -6 15 -14z m80 -4 c0 -10 -7 -19 -15 -19 -8 0 -15 9
-15 19 0 10 7 18 15 18 8 0 15 -8 15 -18z m150 0 c0 -10 -7 -19 -15 -19 -8 0
-15 9 -15 19 0 10 7 18 15 18 8 0 15 -8 15 -18z m74 4 c-9 -24 -34 -28 -34 -6
0 13 7 20 20 20 13 0 17 -5 14 -14z m76 -4 c0 -10 -7 -19 -15 -19 -8 0 -15 9
-15 19 0 10 7 18 15 18 8 0 15 -8 15 -18z m-490 -37 c0 -8 -7 -15 -15 -15 -8
0 -15 7 -15 15 0 8 7 15 15 15 8 0 15 -7 15 -15z m1200 0 c0 -8 -7 -15 -15
-15 -8 0 -15 7 -15 15 0 8 7 15 15 15 8 0 15 -7 15 -15z m-2880 -40 c0 -8 -7
-15 -15 -15 -8 0 -15 7 -15 15 0 8 7 15 15 15 8 0 15 -7 15 -15z m1650 0 c0
-8 -7 -15 -15 -15 -8 0 -15 7 -15 15 0 8 7 15 15 15 8 0 15 -7 15 -15z m70 0
c0 -8 -7 -15 -15 -15 -8 0 -15 7 -15 15 0 8 7 15 15 15 8 0 15 -7 15 -15z
m370 0 c0 -8 -7 -15 -15 -15 -8 0 -15 7 -15 15 0 8 7 15 15 15 8 0 15 -7 15
-15z m80 0 c0 -8 -7 -15 -15 -15 -8 0 -15 7 -15 15 0 8 7 15 15 15 8 0 15 -7
15 -15z m70 0 c0 -8 -7 -15 -15 -15 -8 0 -15 7 -15 15 0 8 7 15 15 15 8 0 15
-7 15 -15z m450 0 c0 -8 -7 -15 -15 -15 -8 0 -15 7 -15 15 0 8 7 15 15 15 8 0
15 -7 15 -15z m80 0 c0 -8 -7 -15 -15 -15 -8 0 -15 7 -15 15 0 8 7 15 15 15 8
0 15 -7 15 -15z m70 0 c0 -8 -7 -15 -15 -15 -8 0 -15 7 -15 15 0 8 7 15 15 15
8 0 15 -7 15 -15z m80 0 c0 -8 -7 -15 -15 -15 -8 0 -15 7 -15 15 0 8 7 15 15
15 8 0 15 -7 15 -15z m-2920 -77 c0 -10 -7 -18 -15 -18 -8 0 -15 8 -15 18 0
10 7 19 15 19 8 0 15 -9 15 -19z m1570 0 c0 -10 -7 -18 -15 -18 -8 0 -15 8
-15 18 0 10 7 19 15 19 8 0 15 -9 15 -19z m750 0 c0 -10 -7 -18 -15 -18 -8 0
-15 8 -15 18 0 10 7 19 15 19 8 0 15 -9 15 -19z m70 0 c0 -10 -7 -18 -15 -18
-8 0 -15 -7 -15 -15 0 -8 -7 -15 -15 -15 -8 0 -15 7 -15 15 0 8 7 15 15 15 8
0 15 8 15 18 0 10 7 19 15 19 8 0 15 -9 15 -19z m80 0 c0 -11 7 -18 20 -18 13
0 20 7 20 18 0 10 7 19 15 19 8 0 15 -9 15 -19 0 -10 -7 -18 -15 -18 -8 0 -15
-7 -15 -15 0 -8 -9 -15 -20 -15 -11 0 -20 7 -20 15 0 8 -7 15 -15 15 -8 0 -15
8 -15 18 0 10 7 19 15 19 8 0 15 -9 15 -19z m150 0 c0 -10 -7 -18 -15 -18 -8
0 -15 8 -15 18 0 10 7 19 15 19 8 0 15 -9 15 -19z m70 0 c0 -10 -7 -18 -15
-18 -8 0 -15 -7 -15 -15 0 -8 -7 -15 -15 -15 -8 0 -15 7 -15 15 0 8 7 15 15
15 8 0 15 8 15 18 0 10 7 19 15 19 8 0 15 -9 15 -19z m-1080 -33 c0 -8 -7 -15
-15 -15 -8 0 -15 7 -15 15 0 8 7 15 15 15 8 0 15 -7 15 -15z m-1690 -40 c0 -8
-7 -15 -15 -15 -8 0 -15 7 -15 15 0 8 7 15 15 15 8 0 15 -7 15 -15z m80 0 c0
-8 -7 -15 -15 -15 -8 0 -15 7 -15 15 0 8 7 15 15 15 8 0 15 -7 15 -15z m1500
0 c0 -8 -9 -15 -20 -15 -11 0 -20 7 -20 15 0 8 9 15 20 15 11 0 20 -7 20 -15z
m70 0 c0 -8 -7 -15 -15 -15 -8 0 -15 7 -15 15 0 8 7 15 15 15 8 0 15 -7 15
-15z m-1680 -40 c0 -8 9 -15 20 -15 11 0 20 7 20 15 0 8 7 15 15 15 8 0 15 -7
15 -15 0 -8 -7 -15 -15 -15 -9 0 -18 -7 -21 -15 -4 -8 -12 -15 -20 -15 -8 0
-14 7 -14 15 0 8 -7 15 -15 15 -8 0 -15 7 -15 15 0 8 7 15 15 15 8 0 15 -7 15
-15z m1610 -30 c0 -8 -9 -15 -20 -15 -11 0 -20 7 -20 15 0 8 9 15 20 15 11 0
20 -7 20 -15z m-1610 -40 c0 -8 -7 -15 -15 -15 -8 0 -15 7 -15 15 0 8 7 15 15
15 8 0 15 -7 15 -15z m1640 0 c0 -8 -7 -15 -15 -15 -8 0 -15 7 -15 15 0 8 7
15 15 15 8 0 15 -7 15 -15z m-1606 -40 c4 -10 -1 -15 -14 -15 -11 0 -20 7 -20
15 0 8 6 15 14 15 8 0 16 -7 20 -15z m1576 0 c0 -8 -9 -15 -20 -15 -11 0 -20
7 -20 15 0 8 9 15 20 15 11 0 20 -7 20 -15z m-1610 -40 c0 -8 7 -15 15 -15 8
0 15 -7 15 -15 0 -8 -7 -15 -15 -15 -8 0 -15 7 -15 15 0 8 -7 15 -15 15 -8 0
-15 7 -15 15 0 8 7 15 15 15 8 0 15 -7 15 -15z m1640 0 c0 -8 -7 -15 -15 -15
-8 0 -15 -7 -15 -15 0 -8 -9 -15 -20 -15 -11 0 -20 7 -20 15 0 8 9 15 20 15
11 0 20 7 20 15 0 8 7 15 15 15 8 0 15 -7 15 -15z m-110 -30 c0 -8 -7 -15 -15
-15 -8 0 -15 7 -15 15 0 8 7 15 15 15 8 0 15 -7 15 -15z m-1530 -40 c0 -8 -7
-15 -15 -15 -8 0 -15 7 -15 15 0 8 7 15 15 15 8 0 15 -7 15 -15z m1640 0 c0
-8 -7 -15 -15 -15 -8 0 -15 7 -15 15 0 8 7 15 15 15 8 0 15 -7 15 -15z m-1606
-40 c4 -10 -1 -15 -14 -15 -11 0 -20 -7 -20 -15 0 -8 -7 -15 -15 -15 -8 0 -15
7 -15 15 0 8 7 15 15 15 8 0 15 7 15 15 0 8 6 15 14 15 8 0 16 -7 20 -15z
m1576 0 c0 -8 7 -15 15 -15 8 0 15 -7 15 -15 0 -8 -7 -15 -15 -15 -8 0 -15 7
-15 15 0 8 -9 15 -20 15 -11 0 -20 -7 -20 -15 0 -8 -7 -15 -15 -15 -8 0 -15 7
-15 15 0 8 7 15 15 15 8 0 15 7 15 15 0 8 9 15 20 15 11 0 20 -7 20 -15z
m-1576 -70 c-4 -8 -12 -15 -20 -15 -8 0 -14 7 -14 15 0 8 9 15 20 15 13 0 18
-5 14 -15z m1496 0 c0 -8 -7 -15 -15 -15 -8 0 -15 7 -15 15 0 8 7 15 15 15 8
0 15 -7 15 -15z m80 0 c0 -8 -9 -15 -20 -15 -11 0 -20 7 -20 15 0 8 9 15 20
15 11 0 20 -7 20 -15z m-1610 -40 c0 -8 -7 -15 -15 -15 -8 0 -15 7 -15 15 0 8
7 15 15 15 8 0 15 -7 15 -15z m1640 0 c0 -8 -7 -15 -15 -15 -8 0 -15 7 -15 15
0 8 7 15 15 15 8 0 15 -7 15 -15z m-1606 -40 c4 -10 -1 -15 -14 -15 -11 0 -20
-7 -20 -15 0 -8 -7 -15 -15 -15 -8 0 -15 7 -15 15 0 8 7 15 15 15 8 0 15 7 15
15 0 8 6 15 14 15 8 0 16 -7 20 -15z m1576 0 c0 -8 7 -15 15 -15 8 0 15 -7 15
-15 0 -8 -7 -15 -15 -15 -8 0 -15 7 -15 15 0 8 -9 15 -20 15 -11 0 -20 7 -20
15 0 8 9 15 20 15 11 0 20 -7 20 -15z m-1576 -70 c-4 -8 -12 -15 -20 -15 -8 0
-14 7 -14 15 0 8 9 15 20 15 13 0 18 -5 14 -15z m1496 0 c0 -8 -7 -15 -15 -15
-8 0 -15 7 -15 15 0 8 7 15 15 15 8 0 15 -7 15 -15z m80 0 c0 -8 -9 -15 -20
-15 -11 0 -20 7 -20 15 0 8 9 15 20 15 11 0 20 -7 20 -15z m-1610 -40 c0 -9 6
-18 14 -21 8 -3 17 -12 20 -19 3 -9 0 -12 -10 -8 -10 4 -17 -2 -21 -16 -6 -24
-33 -29 -33 -6 0 8 7 15 15 15 8 0 15 9 15 20 0 11 -7 20 -15 20 -8 0 -15 7
-15 15 0 8 7 15 15 15 8 0 15 -7 15 -15z m1640 0 c0 -8 -7 -15 -15 -15 -8 0
-15 -9 -15 -20 0 -11 7 -20 15 -20 8 0 15 -7 15 -15 0 -23 -27 -18 -33 6 -4
15 -11 20 -21 16 -11 -5 -16 0 -16 13 0 13 5 18 16 13 10 -4 17 1 21 16 6 24
33 29 33 6z m40 -35 c0 -5 -7 -10 -15 -10 -8 0 -15 5 -15 10 0 6 7 10 15 10 8
0 15 -4 15 -10z m-1650 -75 c0 -8 -7 -15 -15 -15 -8 0 -15 7 -15 15 0 8 7 15
15 15 8 0 15 -7 15 -15z m1580 0 c0 -8 -9 -15 -20 -15 -11 0 -20 7 -20 15 0 8
9 15 20 15 11 0 20 -7 20 -15z m-1500 -75 c0 -13 -5 -18 -15 -14 -8 4 -15 12
-15 20 0 8 7 14 15 14 8 0 15 -9 15 -20z m1500 2 c0 -11 -7 -18 -20 -18 -13 0
-20 7 -20 18 0 11 7 18 20 18 13 0 20 -7 20 -18z m70 0 c0 -10 -7 -19 -15 -19
-8 0 -15 9 -15 19 0 10 7 18 15 18 8 0 15 -8 15 -18z m1050 -2 c0 -13 -5 -18
-15 -14 -8 4 -15 12 -15 20 0 8 7 14 15 14 8 0 15 -9 15 -20z m110 -35 c0 -8
-7 -15 -15 -15 -8 0 -15 7 -15 15 0 8 7 15 15 15 8 0 15 -7 15 -15z m-2810
-40 c0 -8 -7 -15 -15 -15 -8 0 -15 7 -15 15 0 8 7 15 15 15 8 0 15 -7 15 -15z
m80 0 c0 -8 -7 -15 -15 -15 -8 0 -15 7 -15 15 0 8 7 15 15 15 8 0 15 -7 15
-15z m1570 0 c0 -8 -7 -15 -15 -15 -8 0 -15 7 -15 15 0 8 7 15 15 15 8 0 15
-7 15 -15z m80 0 c0 -8 -7 -15 -15 -15 -8 0 -15 7 -15 15 0 8 7 15 15 15 8 0
15 -7 15 -15z m520 0 c0 -8 -7 -15 -15 -15 -8 0 -15 7 -15 15 0 8 7 15 15 15
8 0 15 -7 15 -15z m70 0 c0 -8 -7 -15 -15 -15 -8 0 -15 7 -15 15 0 8 7 15 15
15 8 0 15 -7 15 -15z m80 0 c0 -8 -7 -15 -15 -15 -8 0 -15 7 -15 15 0 8 7 15
15 15 8 0 15 -7 15 -15z m70 0 c0 -8 -7 -15 -15 -15 -8 0 -15 7 -15 15 0 8 7
15 15 15 8 0 15 -7 15 -15z m80 0 c0 -8 -7 -15 -15 -15 -8 0 -15 7 -15 15 0 8
7 15 15 15 8 0 15 -7 15 -15z m70 0 c0 -8 -7 -15 -15 -15 -8 0 -15 7 -15 15 0
8 7 15 15 15 8 0 15 -7 15 -15z m80 0 c0 -8 -7 -15 -15 -15 -8 0 -15 7 -15 15
0 8 7 15 15 15 8 0 15 -7 15 -15z m70 0 c0 -8 -7 -15 -15 -15 -8 0 -15 7 -15
15 0 8 7 15 15 15 8 0 15 -7 15 -15z m80 0 c0 -8 -7 -15 -15 -15 -8 0 -15 7
-15 15 0 8 7 15 15 15 8 0 15 -7 15 -15z m70 0 c0 -8 -7 -15 -15 -15 -8 0 -15
7 -15 15 0 8 7 15 15 15 8 0 15 -7 15 -15z m-1160 -40 c0 -8 -6 -15 -14 -15
-7 0 -16 -9 -19 -20 -3 -11 -10 -20 -15 -20 -5 0 -12 9 -15 20 -4 15 0 20 14
20 10 0 19 7 19 15 0 8 7 15 15 15 8 0 15 -7 15 -15z m450 0 c0 -8 -7 -15 -15
-15 -8 0 -15 7 -15 15 0 8 7 15 15 15 8 0 15 -7 15 -15z m750 0 c0 -8 -7 -15
-15 -15 -8 0 -15 7 -15 15 0 8 7 15 15 15 8 0 15 -7 15 -15z m-2880 -35 c0
-11 -7 -20 -15 -20 -8 0 -15 9 -15 20 0 11 7 20 15 20 8 0 15 -9 15 -20z
m1720 0 c0 -11 -7 -20 -15 -20 -8 0 -15 9 -15 20 0 11 7 20 15 20 8 0 15 -9
15 -20z m150 0 c0 -11 -7 -20 -15 -20 -8 0 -15 9 -15 20 0 11 7 20 15 20 8 0
15 -9 15 -20z m970 0 c0 -11 -7 -20 -15 -20 -8 0 -15 9 -15 20 0 11 7 20 15
20 8 0 15 -9 15 -20z m-2840 -75 c0 -8 -7 -15 -15 -15 -8 0 -15 7 -15 15 0 8
7 15 15 15 8 0 15 -7 15 -15z m1720 0 c0 -8 -7 -15 -15 -15 -8 0 -15 7 -15 15
0 8 7 15 15 15 8 0 15 -7 15 -15z m70 0 c0 -8 -7 -15 -15 -15 -8 0 -15 7 -15
15 0 8 7 15 15 15 8 0 15 -7 15 -15z m80 0 c0 -8 -7 -15 -15 -15 -8 0 -15 7
-15 15 0 8 7 15 15 15 8 0 15 -7 15 -15z m70 0 c0 -8 -7 -15 -15 -15 -8 0 -15
7 -15 15 0 8 7 15 15 15 8 0 15 -7 15 -15z m80 0 c0 -8 -7 -15 -15 -15 -8 0
-15 7 -15 15 0 8 7 15 15 15 8 0 15 -7 15 -15z m900 0 c0 -8 -7 -15 -15 -15
-8 0 -15 7 -15 15 0 8 7 15 15 15 8 0 15 -7 15 -15z m78 3 c-7 -19 -38 -22
-38 -4 0 10 9 16 21 16 12 0 19 -5 17 -12z m36 -43 c-4 -8 -12 -15 -20 -15 -8
0 -14 7 -14 15 0 8 9 15 20 15 13 0 18 -5 14 -15z m-3034 -30 c0 -8 -7 -15
-15 -15 -8 0 -15 7 -15 15 0 8 7 15 15 15 8 0 15 -7 15 -15z m2993 0 c1 -5 -6
-11 -15 -13 -11 -2 -18 3 -18 13 0 17 30 18 33 0z m40 -40 c1 -5 -6 -11 -15
-13 -11 -2 -18 3 -18 13 0 17 30 18 33 0z m-2963 -40 c0 -8 -7 -15 -15 -15 -8
0 -15 7 -15 15 0 8 7 15 15 15 8 0 15 -7 15 -15z m2928 3 c-7 -19 -38 -22 -38
-4 0 10 9 16 21 16 12 0 19 -5 17 -12z m36 -43 c-4 -8 -12 -15 -20 -15 -8 0
-14 7 -14 15 0 8 9 15 20 15 13 0 18 -5 14 -15z m-3034 -30 c0 -8 -7 -15 -15
-15 -8 0 -15 7 -15 15 0 8 7 15 15 15 8 0 15 -7 15 -15z m2993 0 c1 -5 -6 -11
-15 -13 -11 -2 -18 3 -18 13 0 17 30 18 33 0z m80 0 c1 -5 -6 -11 -15 -13 -11
-2 -18 3 -18 13 0 17 30 18 33 0z m-3033 -40 c0 -8 -7 -15 -15 -15 -8 0 -15 7
-15 15 0 8 7 15 15 15 8 0 15 -7 15 -15z m3068 3 c-7 -19 -38 -22 -38 -4 0 10
9 16 21 16 12 0 19 -5 17 -12z m-34 -43 c-4 -8 -15 -15 -25 -15 -12 0 -16 5
-13 15 4 8 15 15 25 15 12 0 16 -5 13 -15z m34 -32 c2 -8 -5 -13 -17 -13 -12
0 -21 6 -21 16 0 18 31 15 38 -3z m-3038 -38 c0 -8 -7 -15 -15 -15 -8 0 -15 7
-15 15 0 8 7 15 15 15 8 0 15 -7 15 -15z m80 0 c0 -8 -7 -15 -15 -15 -8 0 -15
7 -15 15 0 8 7 15 15 15 8 0 15 -7 15 -15z m2923 0 c1 -5 -6 -11 -15 -13 -11
-2 -18 3 -18 13 0 17 30 18 33 0z m-3033 -40 c0 -8 -7 -15 -15 -15 -8 0 -15 7
-15 15 0 8 7 15 15 15 8 0 15 -7 15 -15z m70 0 c0 -8 -7 -15 -15 -15 -8 0 -15
7 -15 15 0 8 7 15 15 15 8 0 15 -7 15 -15z m2998 3 c-7 -19 -38 -22 -38 -4 0
10 9 16 21 16 12 0 19 -5 17 -12z m-2958 -43 c0 -8 -7 -15 -15 -15 -8 0 -15 7
-15 15 0 8 7 15 15 15 8 0 15 -7 15 -15z m2924 0 c-4 -8 -12 -15 -20 -15 -8 0
-14 7 -14 15 0 8 9 15 20 15 13 0 18 -5 14 -15z m-2924 -70 c0 -8 -7 -15 -15
-15 -8 0 -15 7 -15 15 0 8 7 15 15 15 8 0 15 -7 15 -15z m2923 0 c1 -5 -6 -11
-15 -13 -11 -2 -18 3 -18 13 0 17 30 18 33 0z m-2853 -74 c0 -5 -7 -11 -15
-15 -8 -3 -15 -12 -15 -21 0 -8 -7 -15 -15 -15 -8 0 -15 7 -15 15 0 8 7 15 15
15 8 0 15 7 15 15 0 8 7 15 15 15 8 0 15 -4 15 -9z m0 -76 c0 -8 -7 -15 -15
-15 -8 0 -15 7 -15 15 0 8 7 15 15 15 8 0 15 -7 15 -15z m80 0 c0 -8 -7 -15
-15 -15 -8 0 -15 7 -15 15 0 8 7 15 15 15 8 0 15 -7 15 -15z m2700 0 c-7 -8
-19 -15 -26 -15 -8 0 -14 7 -14 15 0 10 10 15 26 15 22 0 25 -2 14 -15z m74 0
c-4 -8 -12 -15 -20 -15 -8 0 -14 7 -14 15 0 8 9 15 20 15 13 0 18 -5 14 -15z
m-2814 -40 c0 -8 -7 -15 -15 -15 -8 0 -15 7 -15 15 0 8 7 15 15 15 8 0 15 -7
15 -15z m40 -35 c0 -13 -5 -18 -15 -14 -8 4 -15 12 -15 20 0 8 7 14 15 14 8 0
15 -9 15 -20z m70 6 c0 -8 -7 -16 -15 -20 -10 -4 -15 1 -15 14 0 11 7 20 15
20 8 0 15 -6 15 -14z m2628 2 c-7 -19 -38 -22 -38 -4 0 10 9 16 21 16 12 0 19
-5 17 -12z m26 -56 c-16 -15 -37 -35 -46 -46 -18 -19 -18 -19 -18 7 0 20 5 27
20 27 13 0 20 7 20 19 0 11 8 21 18 24 32 7 34 -5 6 -31z m-2764 8 c0 -13 -5
-18 -15 -14 -8 4 -15 12 -15 20 0 8 7 14 15 14 8 0 15 -9 15 -20z m38 -37 c-4
-22 -22 -20 -26 1 -2 10 3 16 13 16 10 0 15 -7 13 -17z m72 -4 c0 -24 -23 -21
-28 4 -2 10 3 17 12 17 10 0 16 -9 16 -21z m80 -69 c0 -11 -7 -20 -15 -20 -8
0 -15 9 -15 20 0 11 7 20 15 20 8 0 15 -9 15 -20z m70 0 c0 -11 -7 -20 -15
-20 -8 0 -15 9 -15 20 0 11 7 20 15 20 8 0 15 -9 15 -20z m2400 1 c0 -10 -7
-21 -15 -25 -11 -4 -15 1 -15 19 0 16 6 25 15 25 8 0 15 -9 15 -19z m-2510
-42 c0 -24 -23 -21 -28 4 -2 10 3 17 12 17 10 0 16 -9 16 -21z m43 -39 c3 -11
10 -20 17 -20 7 0 14 9 17 20 7 27 33 26 33 -1 0 -15 -5 -19 -15 -15 -10 3
-15 -1 -15 -13 0 -10 -3 -20 -6 -24 -11 -11 -34 5 -34 24 0 10 -5 18 -12 17
-6 -2 -14 5 -16 15 -5 24 24 22 31 -3z m2385 3 c-5 -25 -28 -28 -28 -4 0 12 6
21 16 21 9 0 14 -7 12 -17z m82 3 c0 -8 -7 -16 -15 -20 -10 -4 -15 1 -15 14 0
11 7 20 15 20 8 0 15 -6 15 -14z m-2400 -77 c0 -24 -23 -21 -28 4 -2 10 3 17
12 17 10 0 16 -9 16 -21z m80 0 c0 -24 -23 -21 -28 4 -2 10 3 17 12 17 10 0
16 -9 16 -21z m70 0 c0 -24 -23 -21 -28 4 -2 10 3 17 12 17 10 0 16 -9 16 -21z
m2100 7 c0 -7 -7 -19 -15 -26 -13 -11 -15 -8 -15 14 0 16 5 26 15 26 8 0 15
-6 15 -14z m70 0 c0 -7 -7 -19 -15 -26 -13 -11 -15 -8 -15 14 0 16 5 26 15 26
8 0 15 -6 15 -14z m-2282 -43 c-4 -22 -22 -20 -26 1 -2 10 3 16 13 16 10 0 15
-7 13 -17z m80 0 c-4 -22 -22 -20 -26 1 -2 10 3 16 13 16 10 0 15 -7 13 -17z
m-40 -40 c-4 -22 -22 -20 -26 1 -2 10 3 16 13 16 10 0 15 -7 13 -17z m70 0
c-4 -22 -22 -20 -26 1 -2 10 3 16 13 16 10 0 15 -7 13 -17z m80 0 c-4 -22 -22
-20 -26 1 -2 10 3 16 13 16 10 0 15 -7 13 -17z m1940 0 c-4 -22 -22 -20 -26 1
-2 10 3 16 13 16 10 0 15 -7 13 -17z m82 3 c0 -8 -7 -16 -15 -20 -10 -4 -15 1
-15 14 0 11 7 20 15 20 8 0 15 -6 15 -14z m-2062 -43 c-4 -22 -22 -20 -26 1
-2 10 3 16 13 16 10 0 15 -7 13 -17z m40 -30 c-4 -22 -22 -20 -26 1 -2 10 3
16 13 16 10 0 15 -7 13 -17z m72 -4 c0 -24 -23 -21 -28 4 -2 10 3 17 12 17 10
0 16 -9 16 -21z m78 4 c-4 -22 -22 -20 -26 1 -2 10 3 16 13 16 10 0 15 -7 13
-17z m70 0 c-4 -22 -22 -20 -26 1 -2 10 3 16 13 16 10 0 15 -7 13 -17z m1652
6 c0 -6 -7 -17 -15 -25 -13 -14 -15 -13 -15 10 0 16 6 26 15 26 8 0 15 -5 15
-11z m70 -4 c0 -9 -7 -18 -15 -21 -8 -4 -15 -12 -15 -19 0 -7 -7 -15 -15 -19
-10 -4 -15 1 -15 14 0 11 7 20 15 20 8 0 15 9 15 20 0 11 7 20 15 20 8 0 15
-7 15 -15z m-112 -42 c-5 -25 -28 -28 -28 -4 0 12 6 21 16 21 9 0 14 -7 12
-17z m-1680 -40 c-4 -22 -22 -20 -26 1 -2 10 3 16 13 16 10 0 15 -7 13 -17z
m1490 0 c-4 -22 -22 -20 -26 1 -2 10 3 16 13 16 10 0 15 -7 13 -17z m82 3 c0
-8 -7 -16 -15 -20 -10 -4 -15 1 -15 14 0 11 7 20 15 20 8 0 15 -6 15 -14z m68
-3 c-4 -22 -22 -20 -26 1 -2 10 3 16 13 16 10 0 15 -7 13 -17z m82 3 c0 -8 -7
-16 -15 -20 -10 -4 -15 1 -15 14 0 11 7 20 15 20 8 0 15 -6 15 -14z m-264 -27
c3 -6 -1 -18 -10 -27 -15 -15 -16 -14 -16 11 0 27 13 36 26 16z m72 -6 c-5
-25 -28 -28 -28 -4 0 12 6 21 16 21 9 0 14 -7 12 -17z m-1310 -40 c-4 -22 -22
-20 -26 1 -2 10 3 16 13 16 10 0 15 -7 13 -17z m80 0 c-5 -25 -28 -28 -28 -4
0 12 6 21 16 21 9 0 14 -7 12 -17z m70 0 c-4 -22 -22 -20 -26 1 -2 10 3 16 13
16 10 0 15 -7 13 -17z m80 0 c-5 -25 -28 -28 -28 -4 0 12 6 21 16 21 9 0 14
-7 12 -17z m70 0 c-4 -22 -22 -20 -26 1 -2 10 3 16 13 16 10 0 15 -7 13 -17z
m80 0 c-2 -10 -10 -18 -18 -18 -8 0 -16 8 -18 18 -2 12 3 17 18 17 15 0 20 -5
18 -17z m70 0 c-4 -22 -22 -20 -26 1 -2 10 3 16 13 16 10 0 15 -7 13 -17z m80
0 c-5 -25 -28 -28 -28 -4 0 12 6 21 16 21 9 0 14 -7 12 -17z m70 0 c-4 -22
-22 -20 -26 1 -2 10 3 16 13 16 10 0 15 -7 13 -17z m70 0 c-4 -22 -22 -20 -26
1 -2 10 3 16 13 16 10 0 15 -7 13 -17z m80 0 c-4 -22 -22 -20 -26 1 -2 10 3
16 13 16 10 0 15 -7 13 -17z m72 -3 c-12 -22 -30 -18 -30 6 0 8 9 14 20 14 18
0 19 -3 10 -20z m78 3 c-5 -25 -28 -28 -28 -4 0 12 6 21 16 21 9 0 14 -7 12
-17z m70 0 c-4 -22 -22 -20 -26 1 -2 10 3 16 13 16 10 0 15 -7 13 -17z m80 0
c-5 -25 -28 -28 -28 -4 0 12 6 21 16 21 9 0 14 -7 12 -17z m70 0 c-4 -22 -22
-20 -26 1 -2 10 3 16 13 16 10 0 15 -7 13 -17z m82 3 c0 -7 -7 -19 -15 -26
-13 -11 -15 -8 -15 14 0 16 5 26 15 26 8 0 15 -6 15 -14z m68 -3 c-4 -22 -22
-20 -26 1 -2 10 3 16 13 16 10 0 15 -7 13 -17z m-1230 -40 c-4 -22 -22 -20
-26 1 -2 10 3 16 13 16 10 0 15 -7 13 -17z m220 0 c-4 -22 -22 -20 -26 1 -2
10 3 16 13 16 10 0 15 -7 13 -17z m150 0 c-4 -22 -22 -20 -26 1 -2 10 3 16 13
16 10 0 15 -7 13 -17z m450 0 c-4 -22 -22 -20 -26 1 -2 10 3 16 13 16 10 0 15
-7 13 -17z m232 3 c0 -8 -7 -16 -15 -20 -10 -4 -15 1 -15 14 0 11 7 20 15 20
8 0 15 -6 15 -14z m-860 -40 c0 -8 -7 -16 -15 -20 -10 -4 -15 1 -15 14 0 11 7
20 15 20 8 0 15 -6 15 -14z m68 -3 c-4 -22 -22 -20 -26 1 -2 10 3 16 13 16 10
0 15 -7 13 -17z m80 0 c-2 -10 -10 -18 -18 -18 -8 0 -16 8 -18 18 -2 12 3 17
18 17 15 0 20 -5 18 -17z m70 0 c-4 -22 -22 -20 -26 1 -2 10 3 16 13 16 10 0
15 -7 13 -17z m82 3 c0 -8 -7 -16 -15 -20 -10 -4 -15 1 -15 14 0 11 7 20 15
20 8 0 15 -6 15 -14z m68 -3 c-4 -22 -22 -20 -26 1 -2 10 3 16 13 16 10 0 15
-7 13 -17z m70 0 c-4 -22 -22 -20 -26 1 -2 10 3 16 13 16 10 0 15 -7 13 -17z
m80 0 c-4 -22 -22 -20 -26 1 -2 10 3 16 13 16 10 0 15 -7 13 -17z"/>
<path d="M2270 4460 c0 -13 7 -20 20 -20 13 0 20 7 20 20 0 13 -7 20 -20 20
-13 0 -20 -7 -20 -20z"/>
<path d="M2420 4460 c0 -13 7 -20 20 -20 13 0 20 7 20 20 0 13 -7 20 -20 20
-13 0 -20 -7 -20 -20z"/>
<path d="M2720 4460 c0 -13 7 -20 20 -20 13 0 20 7 20 20 0 13 -7 20 -20 20
-13 0 -20 -7 -20 -20z"/>
<path d="M3020 4460 c0 -13 7 -20 20 -20 13 0 20 7 20 20 0 13 -7 20 -20 20
-13 0 -20 -7 -20 -20z"/>
<path d="M3170 4460 c0 -13 7 -20 20 -20 13 0 20 7 20 20 0 13 -7 20 -20 20
-13 0 -20 -7 -20 -20z"/>
<path d="M1594 4395 c-8 -20 4 -35 27 -35 14 0 19 7 19 25 0 18 -5 25 -20 25
-11 0 -23 -7 -26 -15z"/>
<path d="M1744 4395 c-8 -20 4 -35 27 -35 14 0 19 7 19 25 0 18 -5 25 -20 25
-11 0 -23 -7 -26 -15z"/>
<path d="M1820 4385 c0 -18 5 -25 20 -25 15 0 20 7 20 25 0 18 -5 25 -20 25
-15 0 -20 -7 -20 -25z"/>
<path d="M3240 4385 c0 -18 5 -25 20 -25 15 0 20 7 20 25 0 18 -5 25 -20 25
-15 0 -20 -7 -20 -25z"/>
<path d="M3390 4385 c0 -22 4 -26 23 -23 14 2 22 10 22 23 0 13 -8 21 -22 23
-19 3 -23 -1 -23 -23z"/>
<path d="M3470 4310 c0 -13 7 -20 20 -20 13 0 20 7 20 20 0 13 -7 20 -20 20
-13 0 -20 -7 -20 -20z"/>
<path d="M1300 4235 c0 -18 5 -25 20 -25 15 0 20 7 20 25 0 18 -5 25 -20 25
-15 0 -20 -7 -20 -25z"/>
<path d="M3690 4235 c0 -18 5 -25 20 -25 15 0 20 7 20 25 0 18 -5 25 -20 25
-15 0 -20 -7 -20 -25z"/>
<path d="M1370 4159 c0 -15 5 -20 22 -17 34 5 37 38 4 38 -20 0 -26 -5 -26
-21z"/>
<path d="M1144 4099 c-8 -14 21 -43 35 -35 6 4 11 16 11 27 0 21 -34 27 -46 8z"/>
<path d="M3846 4088 c8 -29 10 -31 23 -23 20 12 13 45 -10 45 -16 0 -19 -4
-13 -22z"/>
<path d="M1000 3940 c0 -13 7 -20 20 -20 13 0 20 7 20 20 0 13 -7 20 -20 20
-13 0 -20 -7 -20 -20z"/>
<path d="M3843 3940 c1 -12 8 -20 19 -20 11 0 18 7 18 20 0 13 -7 20 -19 20
-14 0 -19 -6 -18 -20z"/>
<path d="M3730 3900 c0 -13 7 -20 20 -20 13 0 20 7 20 20 0 13 -7 20 -20 20
-13 0 -20 -7 -20 -20z"/>
<path d="M3919 3867 c6 -8 8 -17 4 -20 -3 -4 3 -7 15 -7 15 0 22 6 22 20 0 15
-7 20 -26 20 -21 0 -24 -3 -15 -13z"/>
<path d="M3917 3804 c-11 -12 13 -43 28 -38 22 9 19 44 -3 44 -10 0 -22 -3
-25 -6z"/>
<path d="M3993 3790 c1 -12 8 -20 19 -20 11 0 18 7 18 20 0 13 -7 20 -19 20
-14 0 -19 -6 -18 -20z"/>
<path d="M920 3710 c0 -15 7 -20 25 -20 18 0 25 5 25 20 0 15 -7 20 -25 20
-18 0 -25 -5 -25 -20z"/>
<path d="M3919 3717 c6 -8 8 -17 4 -20 -3 -4 3 -7 15 -7 15 0 22 6 22 20 0 15
-7 20 -26 20 -21 0 -24 -3 -15 -13z"/>
<path d="M850 3640 c0 -13 7 -20 20 -20 13 0 20 7 20 20 0 13 -7 20 -20 20
-13 0 -20 -7 -20 -20z"/>
<path d="M3920 3640 c0 -13 7 -20 20 -20 13 0 20 7 20 20 0 13 -7 20 -20 20
-13 0 -20 -7 -20 -20z"/>
<path d="M3993 3640 c1 -12 8 -20 19 -20 11 0 18 7 18 20 0 13 -7 20 -19 20
-14 0 -19 -6 -18 -20z"/>
<path d="M700 3490 c0 -13 7 -20 20 -20 13 0 20 7 20 20 0 13 -7 20 -20 20
-13 0 -20 -7 -20 -20z"/>
<path d="M3993 3490 c1 -12 8 -20 19 -20 11 0 18 7 18 20 0 13 -7 20 -19 20
-14 0 -19 -6 -18 -20z"/>
<path d="M777 3434 c-4 -4 -7 -16 -7 -26 0 -14 6 -19 23 -16 14 2 22 10 22 23
0 20 -25 32 -38 19z"/>
<path d="M700 3340 c0 -13 7 -20 20 -20 13 0 20 7 20 20 0 13 -7 20 -20 20
-13 0 -20 -7 -20 -20z"/>
<path d="M770 3340 c0 -16 5 -21 23 -18 12 2 22 10 22 18 0 8 -10 16 -22 18
-18 3 -23 -2 -23 -18z"/>
<path d="M3993 3340 c1 -12 8 -20 19 -20 11 0 18 7 18 20 0 13 -7 20 -19 20
-14 0 -19 -6 -18 -20z"/>
<path d="M3994 3190 c0 -13 7 -20 18 -20 11 0 18 7 18 20 0 13 -7 20 -18 20
-11 0 -18 -7 -18 -20z"/>
<path d="M557 3064 c-16 -16 -7 -44 14 -44 15 0 20 5 17 22 -3 22 -19 33 -31
22z"/>
<path d="M3924 3064 c-19 -8 -4 -44 18 -44 14 0 19 6 16 22 -3 22 -15 30 -34
22z"/>
<path d="M3999 3068 c-9 -42 -8 -48 12 -48 15 0 20 5 17 22 -2 17 -26 39 -29
26z"/>
<path d="M620 2971 c0 -16 6 -21 26 -21 33 0 30 33 -4 38 -17 3 -22 -2 -22
-17z"/>
<path d="M3843 2970 c1 -12 8 -20 19 -20 11 0 18 7 18 20 0 13 -7 20 -19 20
-14 0 -19 -6 -18 -20z"/>
<path d="M3923 2970 c1 -12 8 -20 19 -20 11 0 18 7 18 20 0 13 -7 20 -19 20
-14 0 -19 -6 -18 -20z"/>
<path d="M3730 2930 c0 -13 7 -20 20 -20 13 0 20 7 20 20 0 13 -7 20 -20 20
-13 0 -20 -7 -20 -20z"/>
<path d="M557 2914 c-16 -16 -7 -44 14 -44 15 0 20 5 17 22 -3 22 -19 33 -31
22z"/>
<path d="M633 2913 c-7 -3 -13 -13 -13 -24 0 -14 7 -19 25 -19 18 0 25 5 25
19 0 20 -17 31 -37 24z"/>
<path d="M3855 2912 c-20 -14 -17 -42 5 -42 13 0 20 7 20 19 0 23 -12 33 -25
23z"/>
<path d="M3999 2918 c-9 -42 -8 -48 12 -48 15 0 20 5 17 22 -2 17 -26 39 -29
26z"/>
<path d="M620 2821 c0 -11 6 -21 13 -24 20 -7 37 4 37 24 0 14 -7 19 -25 19
-18 0 -25 -5 -25 -19z"/>
<path d="M550 2740 c0 -13 7 -20 20 -20 13 0 20 7 20 20 0 13 -7 20 -20 20
-13 0 -20 -7 -20 -20z"/>
<path d="M2490 2740 c0 -15 7 -20 25 -20 18 0 25 5 25 20 0 15 -7 20 -25 20
-18 0 -25 -5 -25 -20z"/>
<path d="M2640 2739 c0 -15 5 -20 22 -17 34 5 37 38 4 38 -20 0 -26 -5 -26
-21z"/>
<path d="M2790 2739 c0 -15 5 -20 22 -17 34 5 37 38 4 38 -20 0 -26 -5 -26
-21z"/>
<path d="M2870 2740 c0 -13 7 -20 20 -20 13 0 20 7 20 20 0 13 -7 20 -20 20
-13 0 -20 -7 -20 -20z"/>
<path d="M2940 2740 c0 -15 7 -20 25 -20 18 0 25 5 25 20 0 15 -7 20 -25 20
-18 0 -25 -5 -25 -20z"/>
<path d="M3612 2743 c2 -10 13 -19 26 -21 17 -3 22 2 22 17 0 16 -6 21 -26 21
-19 0 -25 -5 -22 -17z"/>
<path d="M3690 2740 c0 -13 7 -20 20 -20 13 0 20 7 20 20 0 13 -7 20 -20 20
-13 0 -20 -7 -20 -20z"/>
<path d="M3843 2740 c-1 -14 4 -20 18 -20 12 0 19 7 19 20 0 13 -7 20 -18 20
-11 0 -18 -8 -19 -20z"/>
<path d="M3020 2670 c0 -13 7 -20 20 -20 13 0 20 7 20 20 0 13 -7 20 -20 20
-13 0 -20 -7 -20 -20z"/>
<path d="M3610 2670 c0 -15 7 -20 25 -20 18 0 25 5 25 20 0 15 -7 20 -25 20
-18 0 -25 -5 -25 -20z"/>
<path d="M550 2595 c0 -18 5 -25 20 -25 15 0 20 7 20 25 0 18 -5 25 -20 25
-15 0 -20 -7 -20 -25z"/>
<path d="M2420 2595 c0 -18 5 -25 20 -25 15 0 20 7 20 25 0 18 -5 25 -20 25
-15 0 -20 -7 -20 -25z"/>
<path d="M2497 2614 c-4 -4 -7 -16 -7 -26 0 -13 7 -18 26 -18 21 0 25 4 22 22
-3 23 -27 35 -41 22z"/>
<path d="M3090 2595 c0 -22 4 -26 23 -23 14 2 22 10 22 23 0 13 -8 21 -22 23
-19 3 -23 -1 -23 -23z"/>
<path d="M3247 2613 c-15 -15 -7 -43 13 -43 15 0 20 7 20 25 0 24 -18 34 -33
18z"/>
<path d="M3397 2614 c-4 -4 -7 -16 -7 -26 0 -14 6 -19 23 -16 14 2 22 10 22
23 0 20 -25 32 -38 19z"/>
<path d="M3540 2595 c0 -18 5 -25 20 -25 15 0 20 7 20 25 0 18 -5 25 -20 25
-15 0 -20 -7 -20 -25z"/>
<path d="M3697 2613 c-15 -15 -7 -43 13 -43 15 0 20 7 20 25 0 24 -18 34 -33
18z"/>
<path d="M2420 2520 c0 -13 7 -20 20 -20 13 0 20 7 20 20 0 13 -7 20 -20 20
-13 0 -20 -7 -20 -20z"/>
<path d="M550 2445 c0 -18 5 -25 20 -25 15 0 20 7 20 25 0 18 -5 25 -20 25
-15 0 -20 -7 -20 -25z"/>
<path d="M2492 2448 c2 -15 10 -23 23 -23 30 0 27 39 -3 43 -20 3 -23 0 -20
-20z"/>
<path d="M2420 2370 c0 -13 7 -20 20 -20 13 0 20 7 20 20 0 13 -7 20 -20 20
-13 0 -20 -7 -20 -20z"/>
<path d="M550 2295 c0 -18 5 -25 20 -25 15 0 20 7 20 25 0 18 -5 25 -20 25
-15 0 -20 -7 -20 -25z"/>
<path d="M2494 2305 c-4 -9 -2 -21 4 -27 15 -15 44 -1 40 19 -4 23 -36 29 -44
8z"/>
<path d="M2420 2220 c0 -13 7 -20 20 -20 13 0 20 7 20 20 0 13 -7 20 -20 20
-13 0 -20 -7 -20 -20z"/>
<path d="M550 2144 c0 -33 33 -30 38 4 3 17 -2 22 -17 22 -16 0 -21 -6 -21
-26z"/>
<path d="M2492 2148 c2 -15 10 -23 23 -23 13 0 21 8 23 23 3 18 -1 22 -23 22
-22 0 -26 -4 -23 -22z"/>
<path d="M2942 2148 c2 -15 10 -23 23 -23 30 0 27 39 -3 43 -20 3 -23 0 -20
-20z"/>
<path d="M3092 2148 c2 -15 10 -23 23 -23 30 0 27 39 -3 43 -20 3 -23 0 -20
-20z"/>
<path d="M3242 2148 c5 -34 38 -37 38 -4 0 20 -5 26 -21 26 -15 0 -20 -5 -17
-22z"/>
<path d="M3392 2148 c2 -15 10 -23 23 -23 30 0 27 39 -3 43 -20 3 -23 0 -20
-20z"/>
<path d="M3542 2148 c5 -34 38 -37 38 -4 0 20 -5 26 -21 26 -15 0 -20 -5 -17
-22z"/>
<path d="M3027 2094 c-16 -16 -7 -44 14 -44 15 0 20 5 17 22 -3 22 -19 33 -31
22z"/>
<path d="M3177 2094 c-16 -16 -7 -44 14 -44 15 0 20 5 17 22 -3 22 -19 33 -31
22z"/>
<path d="M3327 2094 c-16 -16 -7 -44 14 -44 15 0 20 5 17 22 -3 22 -19 33 -31
22z"/>
<path d="M3477 2094 c-16 -16 -7 -44 14 -44 15 0 20 5 17 22 -3 22 -19 33 -31
22z"/>
<path d="M3614 2086 c-8 -21 3 -36 27 -36 15 0 20 6 17 22 -4 27 -35 37 -44
14z"/>
<path d="M550 2000 c0 -13 7 -20 20 -20 13 0 20 7 20 20 0 13 -7 20 -20 20
-13 0 -20 -7 -20 -20z"/>
<path d="M2490 2000 c0 -15 7 -20 25 -20 18 0 25 5 25 20 0 15 -7 20 -25 20
-18 0 -25 -5 -25 -20z"/>
<path d="M2640 2000 c0 -15 7 -20 25 -20 18 0 25 5 25 20 0 15 -7 20 -25 20
-18 0 -25 -5 -25 -20z"/>
<path d="M2790 2001 c0 -16 6 -21 26 -21 33 0 30 33 -4 38 -17 3 -22 -2 -22
-17z"/>
<path d="M3020 2000 c0 -13 7 -20 20 -20 13 0 20 7 20 20 0 13 -7 20 -20 20
-13 0 -20 -7 -20 -20z"/>
<path d="M3690 2000 c0 -13 7 -20 20 -20 13 0 20 7 20 20 0 13 -7 20 -20 20
-13 0 -20 -7 -20 -20z"/>
<path d="M3280 1960 c0 -13 7 -20 20 -20 13 0 20 7 20 20 0 13 -7 20 -20 20
-13 0 -20 -7 -20 -20z"/>
<path d="M2577 1944 c-16 -16 -7 -44 14 -44 15 0 20 5 17 22 -3 22 -19 33 -31
22z"/>
<path d="M2727 1944 c-16 -16 -7 -44 14 -44 15 0 20 5 17 22 -3 22 -19 33 -31
22z"/>
<path d="M2797 1943 c-4 -3 -7 -15 -7 -25 0 -23 38 -25 47 -2 8 21 -24 43 -40
27z"/>
<path d="M3770 1935 c-15 -18 -5 -35 21 -35 12 0 19 7 19 19 0 24 -25 34 -40
16z"/>
<path d="M550 1850 c0 -13 7 -20 20 -20 13 0 20 7 20 20 0 13 -7 20 -20 20
-13 0 -20 -7 -20 -20z"/>
<path d="M2720 1850 c0 -13 7 -20 20 -20 13 0 20 7 20 20 0 13 -7 20 -20 20
-13 0 -20 -7 -20 -20z"/>
<path d="M3765 1860 c-9 -15 4 -30 26 -30 12 0 19 7 19 20 0 21 -33 29 -45 10z"/>
<path d="M3844 1850 c0 -13 7 -20 18 -20 11 0 18 7 18 20 0 13 -7 20 -18 20
-11 0 -18 -7 -18 -20z"/>
<path d="M3730 1810 c0 -13 7 -20 20 -20 13 0 20 7 20 20 0 13 -7 20 -20 20
-13 0 -20 -7 -20 -20z"/>
<path d="M620 1769 c0 -15 5 -20 22 -17 34 5 37 38 4 38 -20 0 -26 -5 -26 -21z"/>
<path d="M3923 1770 c-1 -14 4 -20 18 -20 12 0 19 7 19 20 0 13 -7 20 -18 20
-11 0 -18 -8 -19 -20z"/>
<path d="M550 1700 c0 -13 7 -20 20 -20 13 0 20 7 20 20 0 13 -7 20 -20 20
-13 0 -20 -7 -20 -20z"/>
<path d="M620 1700 c0 -15 7 -20 25 -20 18 0 25 5 25 20 0 15 -7 20 -25 20
-18 0 -25 -5 -25 -20z"/>
<path d="M3993 1700 c-1 -14 4 -20 18 -20 12 0 19 7 19 20 0 13 -7 20 -18 20
-11 0 -18 -8 -19 -20z"/>
<path d="M627 1644 c-4 -4 -7 -16 -7 -26 0 -14 6 -19 23 -16 14 2 22 10 22 23
0 20 -25 32 -38 19z"/>
<path d="M3917 1631 c-6 -24 0 -31 25 -31 14 0 19 6 16 22 -4 29 -34 36 -41 9z"/>
<path d="M550 1550 c0 -13 7 -20 20 -20 13 0 20 7 20 20 0 13 -7 20 -20 20
-13 0 -20 -7 -20 -20z"/>
<path d="M700 1550 c0 -13 7 -20 20 -20 13 0 20 7 20 20 0 13 -7 20 -20 20
-13 0 -20 -7 -20 -20z"/>
<path d="M3993 1550 c-1 -14 4 -20 18 -20 12 0 19 7 19 20 0 13 -7 20 -18 20
-11 0 -18 -8 -19 -20z"/>
<path d="M627 1494 c-4 -4 -7 -16 -7 -26 0 -14 6 -19 23 -16 14 2 22 10 22 23
0 20 -25 32 -38 19z"/>
<path d="M700 1400 c0 -13 7 -20 20 -20 13 0 20 7 20 20 0 13 -7 20 -20 20
-13 0 -20 -7 -20 -20z"/>
<path d="M3993 1400 c-1 -14 4 -20 18 -20 12 0 19 7 19 20 0 13 -7 20 -18 20
-11 0 -18 -8 -19 -20z"/>
<path d="M700 1250 c0 -13 7 -20 20 -20 13 0 20 7 20 20 0 13 -7 20 -20 20
-13 0 -20 -7 -20 -20z"/>
<path d="M770 1250 c0 -16 5 -21 23 -18 12 2 22 10 22 18 0 8 -10 16 -22 18
-18 3 -23 -2 -23 -18z"/>
<path d="M3993 1250 c-1 -14 4 -20 18 -20 12 0 19 7 19 20 0 13 -7 20 -18 20
-11 0 -18 -8 -19 -20z"/>
<path d="M772 1178 c4 -27 33 -36 42 -13 8 22 -1 35 -25 35 -15 0 -20 -6 -17
-22z"/>
<path d="M707 1124 c-16 -16 -7 -44 14 -44 15 0 20 5 17 22 -3 22 -19 33 -31
22z"/>
<path d="M857 1124 c-16 -16 -7 -44 14 -44 15 0 20 5 17 22 -3 22 -19 33 -31
22z"/>
<path d="M4000 1122 c0 -6 -3 -17 -6 -26 -4 -12 0 -16 16 -16 16 0 21 5 18 22
-3 21 -28 39 -28 20z"/>
<path d="M857 974 c-16 -16 -7 -44 14 -44 15 0 20 5 17 22 -3 22 -19 33 -31
22z"/>
<path d="M927 974 c-4 -4 -7 -16 -7 -26 0 -13 7 -18 26 -18 21 0 25 4 22 22
-3 23 -27 35 -41 22z"/>
<path d="M3910 948 c-14 -16 -35 -39 -47 -51 -28 -26 -29 -37 -3 -37 11 0 20
7 20 15 0 8 9 15 20 15 13 0 20 7 20 20 0 14 7 20 21 20 15 0 20 5 17 22 -4
31 -20 30 -48 -4z"/>
<path d="M4004 972 c3 -6 2 -13 -4 -17 -17 -11 -11 -25 11 -25 15 0 20 5 17
22 -2 12 -9 23 -17 26 -8 3 -11 0 -7 -6z"/>
<path d="M920 879 c0 -14 7 -19 25 -19 18 0 25 5 25 19 0 13 -7 19 -25 19 -18
0 -25 -6 -25 -19z"/>
<path d="M3922 880 c-11 -18 -10 -20 13 -20 18 0 25 5 25 20 0 11 -6 20 -13
20 -7 0 -18 -9 -25 -20z"/>
<path d="M1110 839 c0 -12 -7 -19 -20 -19 -13 0 -20 -7 -20 -20 0 -14 7 -20
21 -20 12 0 23 8 26 20 3 11 12 20 19 20 22 0 17 36 -6 37 -14 1 -20 -4 -20
-18z"/>
<path d="M1000 799 c0 -12 7 -19 20 -19 13 0 20 7 20 18 0 11 -8 18 -20 19
-14 1 -20 -4 -20 -18z"/>
<path d="M3853 813 c-21 -8 -15 -33 7 -33 13 0 20 7 20 20 0 20 -5 23 -27 13z"/>
<path d="M1070 729 c0 -15 5 -20 23 -17 12 2 22 9 22 17 0 8 -10 16 -22 17
-18 3 -23 -1 -23 -17z"/>
<path d="M3780 739 c0 -5 -5 -7 -11 -3 -7 4 -10 1 -7 -7 3 -8 14 -15 26 -17
17 -3 22 2 22 17 0 12 -6 21 -15 21 -8 0 -15 -5 -15 -11z"/>
<path d="M1144 667 c-8 -22 3 -37 27 -37 14 0 19 7 18 28 0 15 -3 21 -6 14 -4
-10 -8 -10 -19 -1 -11 9 -15 8 -20 -4z"/>
<path d="M1226 673 c-14 -15 -5 -43 14 -43 13 0 20 7 20 19 0 19 -23 35 -34
24z"/>
<path d="M3779 667 c-20 -15 -13 -37 12 -37 12 0 19 7 19 19 0 26 -11 32 -31
18z"/>
<path d="M3853 665 c-19 -21 -16 -35 7 -35 15 0 20 7 20 25 0 28 -9 31 -27 10z"/>
<path d="M1220 579 c0 -12 7 -19 20 -19 13 0 20 7 20 18 0 11 -8 18 -20 19
-14 1 -20 -4 -20 -18z"/>
<path d="M3780 589 c0 -5 -5 -7 -11 -3 -7 4 -10 1 -7 -7 3 -8 14 -15 26 -17
17 -3 22 2 22 17 0 12 -6 21 -15 21 -8 0 -15 -5 -15 -11z"/>
<path d="M1300 503 c0 -16 6 -23 20 -23 14 0 20 7 20 23 0 16 -6 23 -20 23
-14 0 -20 -7 -20 -23z"/>
<path d="M1370 504 c0 -21 4 -25 23 -22 14 2 22 10 22 22 0 12 -8 20 -22 22
-19 3 -23 -1 -23 -22z"/>
<path d="M3635 520 c-4 -6 -11 -7 -17 -4 -6 4 -8 -1 -6 -12 2 -11 13 -20 26
-22 18 -3 22 1 22 22 0 26 -14 35 -25 16z"/>
<path d="M3710 519 c0 -5 -4 -7 -10 -4 -5 3 -10 -3 -10 -14 0 -14 6 -21 20
-21 15 0 20 7 20 25 0 14 -4 25 -10 25 -5 0 -10 -5 -10 -11z"/>
<path d="M1520 429 c0 -12 7 -19 20 -19 13 0 20 7 20 18 0 11 -8 18 -20 19
-14 1 -20 -4 -20 -18z"/>
<path d="M1450 353 c0 -16 6 -23 20 -23 14 0 20 7 20 23 0 16 -6 23 -20 23
-14 0 -20 -7 -20 -23z"/>
<path d="M1593 363 c-7 -18 6 -33 28 -33 13 0 19 7 19 24 0 19 -5 24 -21 23
-12 -1 -23 -7 -26 -14z"/>
<path d="M1670 354 c0 -17 5 -24 20 -24 14 0 20 7 20 23 0 16 -6 23 -20 24
-15 1 -20 -4 -20 -23z"/>
<path d="M1744 369 c-8 -14 9 -39 27 -39 13 0 19 7 19 24 0 19 -5 24 -21 23
-11 -1 -22 -4 -25 -8z"/>
<path d="M3320 353 c0 -16 6 -23 20 -23 15 0 20 7 20 24 0 19 -5 24 -20 23
-14 -1 -20 -8 -20 -24z"/>
<path d="M3390 353 c0 -20 4 -24 23 -21 14 2 22 10 22 23 0 14 -7 20 -22 21
-18 1 -23 -4 -23 -23z"/>
<path d="M3560 369 c0 -5 -5 -7 -11 -3 -7 4 -10 -1 -7 -12 2 -10 11 -20 21
-22 12 -3 17 3 17 22 0 14 -4 26 -10 26 -5 0 -10 -5 -10 -11z"/>
<path d="M1820 279 c0 -12 7 -19 20 -19 13 0 20 7 20 18 0 11 -8 18 -20 19
-14 1 -20 -4 -20 -18z"/>
<path d="M3170 278 c0 -11 7 -18 20 -18 13 0 20 7 20 19 0 14 -6 19 -20 18
-12 -1 -20 -8 -20 -19z"/>
<path d="M3320 278 c0 -11 7 -18 20 -18 13 0 20 7 20 19 0 14 -6 19 -20 18
-12 -1 -20 -8 -20 -19z"/>
<path d="M1893 212 c-8 -18 12 -36 31 -29 25 10 20 46 -5 44 -12 -1 -24 -7
-26 -15z"/>
<path d="M2043 212 c-8 -18 12 -36 31 -29 25 10 20 46 -5 44 -12 -1 -24 -7
-26 -15z"/>
<path d="M2192 206 c2 -13 10 -21 23 -21 13 0 21 8 23 21 2 17 -2 22 -23 22
-21 0 -25 -5 -23 -22z"/>
<path d="M2272 205 c2 -11 10 -20 18 -20 8 0 16 9 18 20 2 15 -3 21 -18 21
-15 0 -20 -6 -18 -21z"/>
<path d="M2342 206 c2 -13 10 -21 23 -21 13 0 21 8 23 21 2 17 -2 22 -23 22
-21 0 -25 -5 -23 -22z"/>
<path d="M2492 206 c2 -13 10 -21 23 -21 13 0 21 8 23 21 2 17 -2 22 -23 22
-21 0 -25 -5 -23 -22z"/>
<path d="M2570 202 c0 -31 34 -26 38 5 3 17 -2 21 -17 20 -15 -1 -21 -8 -21
-25z"/>
<path d="M2642 208 c2 -15 10 -23 23 -23 29 0 27 37 -3 42 -19 2 -23 -1 -20
-19z"/>
<path d="M2792 208 c2 -15 10 -23 23 -23 29 0 27 37 -3 42 -19 2 -23 -1 -20
-19z"/>
<path d="M2942 206 c4 -28 43 -29 43 -2 0 13 -8 20 -23 21 -18 1 -22 -3 -20
-19z"/>
<path d="M3092 206 c4 -28 43 -29 43 -2 0 13 -8 20 -23 21 -18 1 -22 -3 -20
-19z"/>
</g>
</svg>
